<?xml version="1.0" encoding="UTF-8"?><svg id="a" xmlns="http://www.w3.org/2000/svg" viewBox="0 0 3262.57 320.96"><defs><style>.b{fill:#98BFD0;}</style></defs><path class="b" d="M0,260.04c19.8-6.48,39.66-12.74,59.37-19.47,44.33-15.13,88.55-30.58,132.88-45.75,65.11-22.28,130.27-44.42,195.41-66.63,62.46-21.3,124.95-42.55,187.38-63.93,60.6-20.76,121.07-41.88,181.81-62.24,7.04-2.36,15.8-2.63,23.06-.9,52.01,12.39,103.8,25.66,155.72,38.43,62.04,15.26,124.15,30.27,186.21,45.47,48.37,11.85,96.71,23.86,145.08,35.75,82.57,20.29,165.15,40.53,247.72,60.82,18.9,4.65,37.71,8.71,57.54,7.59,25.08-1.42,50.25-1.37,75.38-1.91,27.96-.59,55.93-1.2,83.89-1.67,38.16-.64,76.32-1.12,114.47-1.73,32.78-.52,65.56-1.13,98.33-1.68,35.04-.58,70.09-1.12,105.13-1.71,31.93-.54,63.86-1.13,95.79-1.68,33.34-.58,66.69-1.13,100.03-1.7,33.63-.57,67.25-1.13,100.88-1.69,33.34-.56,66.69-1.05,100.03-1.73,19.47-.39,38.96-.75,58.4-1.72,33.57-1.67,66.04,5.65,98.79,11.03,27.42,4.51,54.94,8.44,82.39,12.8,17.48,2.78,34.89,5.96,52.36,8.8,27.43,4.45,54.9,8.7,82.33,13.15,22.45,3.65,44.85,7.56,67.31,11.2,29.66,4.8,59.35,9.38,89.01,14.18,33.26,5.38,66.48,11.02,99.75,16.32,30.78,4.89,61.63,9.35,92.41,14.23,25.79,4.09,51.58,8.24,77.27,12.89,16.53,2.99,16.45,3.42,16.45,20.02v14.38H0c0-20.31,0-40.62,0-60.92Z"/></svg>