<?xml version="1.0" encoding="UTF-8"?><svg id="a" xmlns="http://www.w3.org/2000/svg" viewBox="0 0 439.35 521.04"><defs><style>.b{fill:#8c943e;}.c{fill:#8c943e;}</style></defs><path class="b" d="M6.17,228.95c-2.73-6.07-6.81-29.81-6.09-50.76.92-26.89,7.16-52.47,19.23-76.58,12.73-25.43,30.39-46.78,52.96-64.01,68.94-52.64,165.77-49.87,231.65,7.48,15.67,13.64,28.68,29.53,38.99,47.6,9.92,17.4,16.79,35.93,20.63,55.58,3.89,19.96,4.58,40.08,1.62,60.19-2.44,16.65-3.13,18.27-4.41,20.54-.79-.73-1.57-1.42-2.3-2.15-18.31-18.34-36.61-36.7-54.91-55.06-4.81-4.81-9.6-9.63-14.44-14.42-.81-.81-1.48-1.85-2.96-2.05-.55.44-1.24.93-1.82,1.53-4.36,4.35-8.73,8.7-13.08,13.06-1.95,1.97-1.94,2.17-.06,4.11.66.69,1.34,1.36,2.03,2.03,25.06,25.12,50.12,50.24,75.19,75.36.75.75,1.48,1.53,2.24,2.26.84.82,1.07,1.85.76,2.93-.29,1.02-.66,2.01-1.1,2.98-3.36,7.23-7.04,14.28-11.28,21.05-.63.99-1.27,1.97-1.97,2.9-.85,1.11-1.92,1.27-3.04.41-.75-.58-1.42-1.28-2.09-1.95-14.73-14.73-29.44-29.45-44.17-44.18-33.65-33.65-67.3-67.32-100.95-100.97-.96-.96-2-1.88-3.07-2.87-.67.4-1.25.66-1.71,1.04-.73.61-1.37,1.33-2.06,2-48.3,48.3-96.6,96.6-144.91,144.91-.75.75-1.48,1.53-2.27,2.23-1.25,1.11-1.95,1.05-2.84-.27-1.07-1.59-2.09-3.2-3.08-4.84-3.69-6.09-7.05-12.36-10.01-18.83-.61-1.34-1.05-2.78-1.47-4.2-.38-1.3-.14-2.52.89-3.51.92-.89,1.79-1.82,2.69-2.72,25.01-24.86,50.04-49.72,75.04-74.6,1.04-1.02,2.26-1.92,2.88-3.42-.46-1.27-1.48-2.06-2.33-2.98-7.68-8.1-11.8-12.06-14.1-13.51-.46.29-1.02.56-1.48.98-.72.63-1.37,1.33-2.05,2-22.83,22.85-45.65,45.69-68.48,68.54-.73.73-1.5,1.42-2.3,2.17l.02.02v-.02ZM286.37,118.4c1.22,1.16,2.15,2,3.04,2.9,6.73,6.93,13.4,13.9,20.19,20.79,8.88,8.99,17.87,17.89,26.81,26.83.75.75,1.53,1.48,2.33,2.17.2.17.69.27.85.15.29-.23.47-.63.63-.98.08-.17,0-.41,0-.63-.7-6.33-1.53-12.62-2.85-18.86-3.83-18.05-10.64-34.89-20.42-50.51-9.03-14.44-20.08-27.12-33.22-37.95-14.41-11.87-30.35-21-47.97-27.18-9.43-3.31-19.08-5.75-29-7.17-6-.85-12-1.59-18.05-1.69-5.94-.09-11.87-.09-17.83.46-6.24.56-12.42,1.4-18.57,2.61-16.83,3.3-32.61,9.37-47.43,17.93-15.98,9.22-29.9,20.91-41.77,35.04-10.04,11.96-18.18,25.09-24.33,39.45-5.37,12.56-8.99,25.61-10.99,39.11-.4,2.72-.56,5.48-.79,8.23-.05.5,0,1.08.79,1.31,1.34-.34,2.12-1.54,3.07-2.49,15.57-15.54,31.1-31.09,46.67-46.64.89-.89,1.68-1.91,2.91-2.52,1.24.52,2.03,1.56,2.91,2.44,9.78,9.75,19.53,19.53,29.32,29.29.89.89,1.63,1.97,3.07,2.33,1.28-.52,2.14-1.63,3.11-2.59,15.34-15.15,30.66-30.32,46-45.51,5.28-5.23,10.56-10.47,15.84-15.7.67-.67,1.37-1.34,2.11-1.94.69-.56,1.34-.58,2.03,0,.89.76,1.71,1.59,2.53,2.41,20.19,20.37,40.37,40.76,60.56,61.14,3.17,3.2,2.96,3.24,6.17.03,9.84-9.84,19.67-19.69,29.53-29.52.82-.81,1.66-1.6,2.79-2.7l-.05-.03h0Z"/><path class="c" d="M183.37,167.56c1.39.67,2.43,1.54,3.37,2.56,1.37,1.48,2.72,2.98,4.14,4.41,36.05,36.05,72.09,72.09,108.14,108.14,6.46,6.46,12.93,12.91,19.38,19.37.81.82,1.57,1.68,2.46,2.62-.52.73-.87,1.37-1.36,1.89-20.04,21.95-43.88,38.32-71.74,48.79-11.66,4.38-23.64,7.46-35.94,9.43-11.26,1.8-22.59,2.23-33.96,2.01-5.1-.09-10.19-.32-15.25-.93-18.01-2.18-35.41-6.67-52.07-13.92-15.87-6.91-30.49-15.86-43.83-26.89-6.64-5.49-12.82-11.48-18.66-17.79-.5-.55-.98-1.11-1.42-1.71-.18-.24-.24-.56-.41-.98.44-.55.87-1.14,1.37-1.66,14.91-15.55,132.82-133.12,135.79-135.35h-.02,0ZM146,247.51c-1.02.96-1.97,1.82-2.85,2.7-14.1,14.15-28.19,28.29-42.29,42.44-3.89,3.91-7.8,7.81-11.69,11.75-.81.81-1.82,1.5-2.06,2.76.43,1.19,1.5,1.77,2.41,2.46,16.45,12.29,34.63,21,54.5,26.16,7.29,1.89,14.68,3.27,22.21,4.01,6.03.61,12.04,1.16,18.1,1.05,3.17-.06,6.35-.4,9.54-.47,6.18-.15,12.27-1.05,18.31-2.18,18.1-3.39,35.18-9.65,51-19.11,4.82-2.88,9.4-6.18,14.07-9.32.85-.56,1.86-1.07,2.12-2.33-.37-1.25-1.45-2-2.33-2.88-14.93-15.12-29.87-30.23-44.79-45.33-3.2-3.25-6.42-6.49-9.66-9.71-.73-.73-1.34-1.69-2.82-1.76-.64.58-1.43,1.27-2.18,2-2.56,2.55-5.1,5.13-7.63,7.69-7.92,8-15.84,15.99-23.79,23.98-.79.81-1.45,1.85-2.88,2.17-.81-.76-1.66-1.54-2.49-2.35-10.48-10.39-20.97-20.79-31.47-31.18-.89-.89-1.68-1.92-3.3-2.53l-.02-.02h0Z"/></svg>