<?xml version="1.0" encoding="UTF-8"?><svg id="a" xmlns="http://www.w3.org/2000/svg" viewBox="0 0 511.97 616.14"><defs><style>.b{fill:#8c943e;}.c{fill:none;}.d{fill:#8c943e;}</style></defs><path class="b" d="M78.79,228.94c-2.73-6.07-6.81-29.81-6.09-50.76.92-26.89,7.16-52.47,19.23-76.58,12.73-25.43,30.39-46.78,52.96-64.01,68.94-52.64,165.77-49.87,231.65,7.48,15.67,13.64,28.68,29.53,38.99,47.6,9.92,17.4,16.79,35.93,20.63,55.58,3.89,19.96,4.58,40.08,1.62,60.19-2.44,16.65-3.13,18.27-4.41,20.54-.79-.73-1.57-1.42-2.3-2.15-18.31-18.34-36.61-36.7-54.91-55.06-4.81-4.81-9.6-9.63-14.44-14.42-.81-.81-1.48-1.85-2.96-2.05-.55.44-1.24.93-1.82,1.53-4.36,4.35-8.73,8.7-13.08,13.06-1.95,1.97-1.94,2.17-.06,4.11.66.69,1.34,1.36,2.03,2.03,25.06,25.12,50.12,50.24,75.19,75.36.75.75,1.48,1.53,2.24,2.26.84.82,1.07,1.85.76,2.93-.29,1.02-.66,2.01-1.1,2.98-3.36,7.23-7.04,14.28-11.28,21.05-.63.99-1.27,1.97-1.97,2.9-.85,1.11-1.92,1.27-3.04.41-.75-.58-1.42-1.28-2.09-1.95-14.73-14.73-29.44-29.45-44.17-44.18-33.65-33.65-67.3-67.32-100.95-100.97-.96-.96-2-1.88-3.07-2.87-.67.4-1.25.66-1.71,1.04-.73.61-1.37,1.33-2.06,2-48.3,48.3-96.6,96.6-144.91,144.91-.75.75-1.48,1.53-2.27,2.23-1.25,1.11-1.95,1.05-2.84-.27-1.07-1.59-2.09-3.2-3.08-4.84-3.69-6.09-7.05-12.36-10.01-18.83-.61-1.34-1.05-2.78-1.47-4.2-.38-1.3-.14-2.52.89-3.51.92-.89,1.79-1.82,2.69-2.72,25.01-24.86,50.04-49.72,75.04-74.6,1.04-1.02,2.26-1.92,2.88-3.42-.46-1.27-1.48-2.06-2.33-2.98-7.68-8.1-11.8-12.06-14.1-13.51-.46.29-1.02.56-1.48.98-.72.63-1.37,1.33-2.05,2-22.83,22.85-45.65,45.69-68.48,68.54-.73.73-1.5,1.42-2.3,2.17l.02.02ZM358.99,118.39c1.22,1.16,2.15,2,3.04,2.9,6.73,6.93,13.4,13.9,20.19,20.79,8.88,8.99,17.87,17.89,26.81,26.83.75.75,1.53,1.48,2.33,2.17.2.17.69.27.85.15.29-.23.47-.63.63-.98.08-.17,0-.41,0-.63-.7-6.33-1.53-12.62-2.85-18.86-3.83-18.05-10.64-34.89-20.42-50.51-9.03-14.44-20.08-27.12-33.22-37.95-14.41-11.87-30.35-21-47.97-27.18-9.43-3.31-19.08-5.75-29-7.17-6-.85-12-1.59-18.05-1.69-5.94-.09-11.87-.09-17.83.46-6.24.56-12.42,1.4-18.57,2.61-16.83,3.3-32.61,9.37-47.43,17.93-15.98,9.22-29.9,20.91-41.77,35.04-10.04,11.96-18.18,25.09-24.33,39.45-5.37,12.56-8.99,25.61-10.99,39.11-.4,2.72-.56,5.48-.79,8.23-.05.5,0,1.08.79,1.31,1.34-.34,2.12-1.54,3.07-2.49,15.57-15.54,31.1-31.09,46.67-46.64.89-.89,1.68-1.91,2.91-2.52,1.24.52,2.03,1.56,2.91,2.44,9.78,9.75,19.53,19.53,29.32,29.29.89.89,1.63,1.97,3.07,2.33,1.28-.52,2.14-1.63,3.11-2.59,15.34-15.15,30.66-30.32,46-45.51,5.28-5.23,10.56-10.47,15.84-15.7.67-.67,1.37-1.34,2.11-1.94.69-.56,1.34-.58,2.03,0,.89.76,1.71,1.59,2.53,2.41,20.19,20.37,40.37,40.76,60.56,61.14,3.17,3.2,2.96,3.24,6.17.03,9.84-9.84,19.67-19.69,29.53-29.52.82-.81,1.66-1.6,2.79-2.7l-.05-.03Z"/><path class="d" d="M255.99,167.55c1.39.67,2.43,1.54,3.37,2.56,1.37,1.48,2.72,2.98,4.14,4.41,36.05,36.05,72.09,72.09,108.14,108.14,6.46,6.46,12.93,12.91,19.38,19.37.81.82,1.57,1.68,2.46,2.62-.52.73-.87,1.37-1.36,1.89-20.04,21.95-43.88,38.32-71.74,48.79-11.66,4.38-23.64,7.46-35.94,9.43-11.26,1.8-22.59,2.23-33.96,2.01-5.1-.09-10.19-.32-15.25-.93-18.01-2.18-35.41-6.67-52.07-13.92-15.87-6.91-30.49-15.86-43.83-26.89-6.64-5.49-12.82-11.48-18.66-17.79-.5-.55-.98-1.11-1.42-1.71-.18-.24-.24-.56-.41-.98.44-.55.87-1.14,1.37-1.66,14.91-15.55,132.82-133.12,135.79-135.35h-.02ZM218.62,247.5c-1.02.96-1.97,1.82-2.85,2.7-14.1,14.15-28.19,28.29-42.29,42.44-3.89,3.91-7.8,7.81-11.69,11.75-.81.81-1.82,1.5-2.06,2.76.43,1.19,1.5,1.77,2.41,2.46,16.45,12.29,34.63,21,54.5,26.16,7.29,1.89,14.68,3.27,22.21,4.01,6.03.61,12.04,1.16,18.1,1.05,3.17-.06,6.35-.4,9.54-.47,6.18-.15,12.27-1.05,18.31-2.18,18.1-3.39,35.18-9.65,51-19.11,4.82-2.88,9.4-6.18,14.07-9.32.85-.56,1.86-1.07,2.12-2.33-.37-1.25-1.45-2-2.33-2.88-14.93-15.12-29.87-30.23-44.79-45.33-3.2-3.25-6.42-6.49-9.66-9.71-.73-.73-1.34-1.69-2.82-1.76-.64.58-1.43,1.27-2.18,2-2.56,2.55-5.1,5.13-7.63,7.69-7.92,8-15.84,15.99-23.79,23.98-.79.81-1.45,1.85-2.88,2.17-.81-.76-1.66-1.54-2.49-2.35-10.48-10.39-20.97-20.79-31.47-31.18-.89-.89-1.68-1.92-3.3-2.53l-.02-.02Z"/><path d="M98.85,433.24c3.45-.47,6.71-.15,10.04-.23.41,1.33-.14,2.3-.4,3.25-2.93,10.87-5.91,21.7-8.88,32.55-4.43,16.18-8.85,32.34-13.28,48.52-.31,1.11-.67,2.21-.98,3.22-2.53.52-7.33.58-10.79.14-.27-.9-.61-1.89-.89-2.9-5.91-21.27-11.8-42.53-17.7-63.81-.27-1.01-.63-2-1.04-3.28-.5.43-.9.61-1.02.9-.32.78-.53,1.62-.76,2.43-5.91,21.27-11.8,42.53-17.7,63.81-.26.92-.53,1.82-.79,2.67-2.32.55-6.53.64-10.53.24-.89-.85-.95-2.09-1.25-3.19-3.62-13.09-7.19-26.2-10.77-39.3-3.8-13.92-7.62-27.84-11.4-41.77-.27-1.01-.47-2.05-.7-3.07,2.46-.63,7.37-.66,10.29-.06.27.93.61,1.92.87,2.93,5.54,21.58,11.06,43.17,16.63,64.75.31,1.18.32,2.52,1.22,3.45,1.16-.12,1.18-.98,1.36-1.63,1.28-4.82,2.55-9.65,3.8-14.47,4.53-17.35,9.05-34.7,13.58-52.06.26-1.01.6-2.01.87-2.91,2.46-.55,8.09-.64,11.6-.21.85.85.9,2.09,1.19,3.17,3.27,12.42,6.49,24.85,9.74,37.27,2.49,9.55,5.01,19.09,7.51,28.63.21.81.23,1.71,1.27,2.32.31-.49.73-.93.87-1.47.85-3.07,1.65-6.15,2.43-9.23,4.93-19.21,9.84-38.44,14.77-57.67.24-.93.5-1.83.85-3.05v.06Z"/><path d="M268,520.75c-3.56.4-6.71.2-10.06.15-.72-.99-1.48-1.98-2.2-3.02-14.54-20.94-29.07-41.88-43.6-62.82-.61-.87-1.21-1.76-1.86-2.59-.23-.29-.61-.46-1.16-.85-.18.61-.38.98-.4,1.34-.05,1.05-.05,2.12-.05,3.19v60.54c0,1.27-.05,2.52-.06,3.88-1.77.67-3.48.32-5.14.38-1.59.06-3.16,0-4.87,0-.15-.79-.32-1.39-.38-1.98-.06-.63-.02-1.27-.02-1.91v-83.49c1.76-.96,3.48-.52,5.11-.56,1.69-.06,3.37.05,5.1.08.81,1.13,1.56,2.15,2.27,3.19,14.61,21.01,29.21,42.03,43.82,63.06.55.78,1.07,1.59,1.68,2.32.23.27.64.4,1.16.7.2-.58.41-.95.44-1.33.06-1.05.05-2.12.05-3.19v-60.54c0-1.25.06-2.52.09-3.82,1.66-.78,3.28-.44,4.82-.49,1.59-.05,3.16.03,4.87.06.15.78.35,1.37.37,1.98.05,1.59.02,3.19.02,4.78v80.95Z"/><path d="M492.71,485.07c1.63,3.01,3.25,5.98,4.87,8.96,1.63,2.98,3.28,5.95,4.91,8.94,1.59,2.88,3.19,5.77,4.73,8.67,1.57,2.96,3.46,5.77,4.75,9.17-3.97.32-7.65.11-11.22.14-1.16-.75-1.51-1.92-2.05-2.93-5.05-9.34-10.09-18.7-15.12-28.03-.6-1.11-1.24-2.21-1.79-3.19-3.08-.44-18.95-.4-21.58.05-.55,1.02-.32,2.21-.32,3.34-.02,8.93,0,17.86,0,26.77v3.39c-2.14.75-5.36.87-10.07.41-.12-.53-.32-1.13-.38-1.72-.08-.73-.02-1.48-.02-2.23v-79.68c0-1.25-.2-2.53.34-3.91.84-.08,1.66-.23,2.49-.23,9.36,0,18.7-.02,28.05,0,3.74,0,7.43.38,11,1.51,9.6,3.02,15.35,9.46,17.17,19.38.76,4.14.73,8.24-.08,12.35-1.53,7.8-5.71,13.6-12.93,17.11-.76.37-1.51.75-2.27,1.13-.09.05-.14.15-.47.58l-.02.03ZM460.26,442.31c-.17.46-.35.75-.35,1.04-.02,10.84-.02,21.67,0,32.51,0,.29.18.58.34.99.38.09.78.24,1.18.24,6.59,0,13.17.08,19.76-.05,2.87-.05,5.71-.58,8.39-1.69,4.18-1.72,7.02-4.67,8.29-9.05,1.02-3.54,1.18-7.1.53-10.71-1.13-6.36-4.72-10.53-10.94-12.38-2.67-.79-5.42-1.11-8.18-1.13-5.52-.05-11.05-.03-16.57,0-.82,0-1.65.15-2.43.23h-.02Z"/><path d="M290.03,520.83c-.15-.55-.35-.93-.38-1.33-.06-.84-.06-1.69-.06-2.55v-80c0-1.14.09-2.3.14-3.59.89-.14,1.59-.35,2.29-.37,9.25,0,18.48,0,27.73.02,3.95,0,7.84.55,11.63,1.65,11.11,3.24,18.89,10.24,23.4,20.88,1.92,4.53,2.99,9.29,3.46,14.18.82,8.55.4,16.99-2.3,25.2-3.08,9.37-8.73,16.67-17.58,21.3-4.09,2.14-8.45,3.42-13,4.09-3.27.49-6.55.67-9.84.66-7.43-.05-14.88,0-22.31-.02-1.04,0-2.08-.09-3.19-.14l.03.02ZM300.25,511.5c.76.09,1.39.21,2,.21,5.31,0,10.62.06,15.92-.06,2.32-.05,4.67-.31,6.94-.78,10.13-2.11,17.15-7.94,20.82-17.7.29-.79.55-1.6.78-2.43,1.97-6.73,2.24-13.58,1.5-20.5-.49-4.46-1.56-8.78-3.54-12.82-3.36-6.82-8.65-11.42-15.93-13.7-3.48-1.1-7.05-1.59-10.65-1.65-5.2-.09-10.41-.03-15.6-.02-.72,0-1.42.17-2.24.26-.11.66-.23,1.14-.26,1.66-.29,6.42-.08,64.71.29,67.5l-.02.02Z"/><path d="M430.28,511.95c.34,3.05.29,5.78.08,8.39-.78.87-1.68.63-2.49.63-5.2.03-10.41,0-15.61,0h-35.13c-.17-.76-.35-1.36-.4-1.95-.06-.73-.02-1.48-.02-2.23v-79.63c0-1.25-.17-2.53.27-3.82.47-.12.87-.31,1.27-.31,16.77,0,33.54,0,50.33.05.29,0,.56.21.98.38.4,2.7.31,5.42.06,8.21-1.19.6-2.37.38-3.49.38-11.67.02-23.36,0-35.04.02-1.14,0-2.29.09-3.57.14-.14.69-.31,1.18-.31,1.68-.02,8.81-.02,17.63,0,26.43,0,.5.12,1.01.18,1.59,1.27.44,2.43.32,3.57.32h32.17c1.14,0,2.32-.17,3.56.32.43,2.87.35,5.68.06,8.52-1.21.64-2.38.38-3.53.4-10.73.02-21.44,0-32.17.02-1.14,0-2.29.08-3.16.12-.34.31-.43.38-.47.46-.05.09-.09.2-.09.31-.05,1.05-.12,2.12-.12,3.17.02,8.39.05,16.77.09,25.17,0,.18.14.38.29.73.98.53,2.17.29,3.3.31,9.77.02,19.53,0,29.3,0h7.65c.73,0,1.45.11,2.47.2l-.03.02Z"/><path d="M119.43,520.92c-3.56.09-6.91.09-10.32,0,0-.56-.09-.9,0-1.16,10.55-28.8,21.11-57.6,31.74-86.56,3.62-.41,7.19-.14,10.87-.17,2.91,7.39,5.46,14.68,8.13,21.93,2.72,7.37,5.42,14.74,8.13,22.11,2.67,7.26,5.37,14.53,8.01,21.81,2.62,7.25,5.4,14.44,7.98,21.96h-10.77c-2.93-8.18-5.86-16.36-8.81-24.6-3.1-.46-6.06-.18-9-.23-2.98-.05-5.95,0-8.93,0h-17.57c-1.18,1.07-1.34,2.27-1.72,3.36-2.18,6.09-4.33,12.21-6.5,18.3-.38,1.08-.84,2.14-1.27,3.25h.02ZM146.23,446.8c-1.4,2.5-10.1,26.37-13.77,37.73-.18.58-.24,1.22-.38,1.98.64.11,1.13.26,1.63.26h25.46c.47,0,.95-.18,1.56-.32-.15-.72-.2-1.25-.37-1.74-4.46-12.47-8.91-24.94-13.4-37.41-.06-.15-.32-.23-.72-.5h-.02Z"/><path d="M409.83,598.62c2.11-.29,3.86-.29,5.72-.05.18.61.34,1.1.46,1.6,1.07,4.36,3.89,7.19,7.91,8.96,2.56,1.14,5.3,1.6,8.06,1.68,4.3.11,8.47-.6,12.19-2.96,3.3-2.09,5.46-4.98,6.04-8.93.55-3.75-.46-6.99-3.43-9.39-1.31-1.05-2.78-1.98-4.32-2.64-2.43-1.04-4.96-1.88-7.48-2.69-2.82-.92-5.69-1.68-8.53-2.58-2.95-.93-5.68-2.32-8.27-4.03-9-5.97-7.78-17.47-3.07-22.98,3.01-3.53,6.79-5.71,11.23-6.85,5.17-1.33,10.32-1.22,15.4.38,4.49,1.42,8.18,3.98,10.76,8.01,1.65,2.58,2.32,4.93,2.24,7.91-1.6.61-3.27.32-5.08.21-.23-.72-.47-1.39-.67-2.08-.98-3.45-3.07-6.12-6.21-7.72-6.5-3.31-13.09-3.3-19.52.18-3.56,1.92-5.69,5.04-6.04,9.17-.34,3.82,1.13,6.84,4.15,9.13,1.88,1.42,3.95,2.5,6.18,3.22,3.33,1.07,6.7,2,10.04,3.07,2.23.7,4.44,1.45,6.59,2.34,1.56.66,3.07,1.48,4.49,2.4,7.22,4.67,8.73,12.15,6.33,19.23-1.39,4.11-4.11,7.14-7.77,9.37-2.56,1.56-5.36,2.58-8.32,3.04-5.2.81-10.36.78-15.44-.78-3.08-.95-5.88-2.44-8.23-4.69-3.19-3.04-5.02-6.75-5.39-11.54h-.03Z"/><path d="M65.32,598.65c1.86-.43,3.62-.2,5.45-.17.23.75.44,1.34.6,1.94,1.08,4.24,3.91,6.94,7.77,8.68,2.56,1.16,5.3,1.62,8.06,1.69,4.2.12,8.26-.55,11.93-2.76,3.36-2.01,5.63-4.84,6.32-8.74.72-4.09-.4-7.62-3.83-10.13-1.36-.99-2.84-1.89-4.41-2.5-3.05-1.19-6.21-2.15-9.32-3.17-2.62-.85-5.27-1.62-7.87-2.52-2.41-.84-4.67-2.05-6.75-3.54-7-5.1-8.65-14.21-3.88-21.46,1.72-2.62,4-4.7,6.79-6.1,7.77-3.91,15.7-4.09,23.65-.6,3.69,1.62,6.58,4.27,8.5,7.86,1.11,2.08,1.91,4.24,1.72,6.81-1.63.78-3.3.38-5.07.34-.23-.6-.49-1.14-.66-1.74-1.07-4.09-3.6-6.97-7.4-8.64-5.85-2.56-11.78-2.52-17.57.24-3.3,1.57-5.63,4.11-6.59,7.74-1.11,4.21,0,7.77,3.27,10.61,1.86,1.62,4.04,2.75,6.36,3.54,2.72.92,5.46,1.69,8.2,2.56,2.62.82,5.3,1.59,7.84,2.59,1.86.73,3.66,1.69,5.36,2.76,8.65,5.48,8.64,14.68,5.72,20.95-1.42,3.07-3.69,5.39-6.46,7.29-7.58,5.22-22.24,5.22-29.77.17-4.47-2.99-7.31-7-8.09-12.38-.06-.4.03-.81.06-1.33h.06Z"/><path d="M357.04,579.14c.41,1.43.23,2.88.11,4.32-.84.85-1.85.56-2.76.56-8.07.03-16.13,0-24.2.03-1.14,0-2.33-.26-3.51.38-.09.37-.27.76-.27,1.18-.02,7.54,0,15.08,0,22.6,0,.4.2.81.29,1.18,1.18.64,2.37.38,3.49.38,8.59.03,17.2,0,25.79.02,1.16,0,2.3.05,3.57.08.6,1.63.44,3.14.18,4.67-.44.15-.73.34-1.02.34-12.21.02-24.42.03-36.63.02-.4,0-.81-.17-1.34-.29-.08-.66-.23-1.25-.23-1.86v-62.74c0-.52.08-1.05.11-1.54.95-.92,2.06-.58,3.07-.58,7.97-.03,15.92-.02,23.88-.02h8.91c.82,0,1.65.12,2.53.18.38,1.62.31,3.05.06,4.55-1.16.6-2.35.37-3.48.37-8.38.02-16.77,0-25.15.02-1.16,0-2.32.05-3.57.08-.2.6-.49,1.08-.49,1.56-.03,7.54-.02,15.08,0,22.6,0,.31.14.61.24.98.9.75,2.01.46,3.02.46,7.97.03,15.92,0,23.88.03,1.14,0,2.33-.26,3.49.41l.02.06Z"/><path d="M241.86,553.29c-3.71-.55-7.19-.2-10.67-.27-3.37-.08-6.76.05-10.15-.08-.61-1.76-.61-3.27-.09-4.78,2.53-.37,44.59-.43,47.78-.08.43,1.27.47,2.85.14,4.73-2.23.38-4.56.14-6.87.18-2.23.05-4.46-.03-6.68.02-2.32.06-4.65-.24-7.1.24-.14.63-.35,1.21-.4,1.82-.08.95-.03,1.91-.03,2.87v52.85c0,1.25.12,2.52-.29,3.86-1.74.43-3.37.4-5.07.05-.67-1.24-.4-2.52-.4-3.77-.02-17.29,0-34.6,0-51.89v-3.49c0-.63-.09-1.25-.18-2.24v-.02Z"/><path d="M169.08,614.65c-1.8.41-3.45.41-5.16.03-.55-1.28-.34-2.56-.34-3.82v-62.48c1.86-.9,3.6-.38,5.39-.46.53,1.43.35,2.72.35,3.95v60.54c0,.72-.14,1.43-.23,2.21l-.02.02Z"/><path class="c" d="M358.99,118.39c-1.13,1.1-1.98,1.88-2.79,2.7-9.84,9.84-19.69,19.67-29.53,29.52-3.2,3.2-2.99,3.17-6.17-.03-20.19-20.37-40.37-40.76-60.56-61.14-.82-.82-1.65-1.66-2.53-2.41-.67-.58-1.33-.56-2.03,0-.73.61-1.43,1.27-2.11,1.94-5.28,5.23-10.56,10.47-15.84,15.7-15.32,15.17-30.66,30.34-46,45.51-.96.96-1.83,2.06-3.11,2.59-1.43-.37-2.18-1.45-3.07-2.33-9.78-9.75-19.53-19.52-29.32-29.29-.89-.89-1.66-1.92-2.91-2.44-1.24.61-2.03,1.63-2.91,2.52-15.55,15.54-31.1,31.1-46.67,46.64-.95.95-1.74,2.15-3.07,2.49-.79-.23-.84-.81-.79-1.31.23-2.75.38-5.51.79-8.23,2-13.51,5.63-26.55,10.99-39.11,6.14-14.36,14.27-27.49,24.33-39.45,11.87-14.13,25.81-25.82,41.77-35.04,14.82-8.56,30.61-14.64,47.43-17.93,6.15-1.21,12.33-2.05,18.57-2.61,5.95-.53,11.89-.55,17.83-.46,6.06.09,12.06.82,18.05,1.69,9.9,1.42,19.55,3.86,29,7.17,17.63,6.18,33.57,15.31,47.97,27.18,13.16,10.85,24.2,23.52,33.22,37.95,9.78,15.63,16.59,32.46,20.42,50.51,1.33,6.24,2.15,12.54,2.85,18.86.03.21.09.46,0,.63-.15.35-.34.76-.63.98-.15.12-.66.02-.85-.15-.81-.69-1.57-1.42-2.33-2.17-8.94-8.93-17.92-17.84-26.81-26.83-6.79-6.87-13.46-13.86-20.19-20.79-.89-.9-1.82-1.74-3.04-2.9l.05.03Z"/><path class="c" d="M218.62,247.5c1.62.61,2.41,1.65,3.3,2.53,10.5,10.39,20.97,20.79,31.47,31.18.82.81,1.68,1.59,2.49,2.35,1.43-.32,2.09-1.36,2.88-2.17,7.94-7.98,15.86-15.98,23.79-23.98,2.55-2.56,5.08-5.13,7.63-7.69.75-.73,1.54-1.42,2.18-2,1.48.06,2.09,1.02,2.82,1.76,3.24,3.22,6.46,6.46,9.66,9.71,14.94,15.11,29.88,30.22,44.79,45.33.87.89,1.97,1.63,2.33,2.88-.27,1.27-1.28,1.77-2.12,2.33-4.67,3.14-9.25,6.44-14.07,9.32-15.83,9.46-32.9,15.72-51,19.11-6.04,1.13-12.13,2.03-18.31,2.18-3.17.08-6.35.41-9.54.47-6.06.11-12.07-.44-18.1-1.05-7.52-.75-14.91-2.12-22.21-4.01-19.87-5.16-38.05-13.87-54.5-26.16-.92-.69-1.98-1.27-2.41-2.46.24-1.27,1.25-1.95,2.06-2.76,3.88-3.94,7.78-7.83,11.69-11.75,14.1-14.15,28.19-28.29,42.29-42.44.89-.9,1.83-1.74,2.85-2.7l.02.02Z"/><path class="c" d="M460.26,442.31c.78-.08,1.6-.23,2.43-.23,5.52-.02,11.05-.05,16.57,0,2.76.02,5.51.35,8.18,1.13,6.21,1.85,9.81,6.01,10.94,12.38.64,3.62.49,7.19-.53,10.71-1.27,4.4-4.11,7.33-8.29,9.05-2.69,1.11-5.52,1.63-8.39,1.69-6.58.12-13.17.05-19.76.05-.4,0-.79-.17-1.18-.24-.14-.4-.34-.69-.34-.99v-32.51c0-.29.2-.58.35-1.04h.02Z"/><path class="c" d="M300.25,511.5c-.37-2.78-.58-61.08-.29-67.5.03-.5.15-1.01.26-1.66.82-.11,1.53-.26,2.24-.26,5.2-.02,10.41-.08,15.6.02,3.62.06,7.19.55,10.65,1.65,7.28,2.29,12.58,6.88,15.93,13.7,2,4.04,3.07,8.36,3.54,12.82.75,6.93.47,13.78-1.5,20.5-.24.81-.49,1.63-.78,2.43-3.66,9.75-10.68,15.6-20.82,17.7-2.27.47-4.62.72-6.94.78-5.31.12-10.62.06-15.92.06-.61,0-1.24-.14-2-.21l.02-.02Z"/><path class="c" d="M146.23,446.8c.4.26.67.35.72.5,4.47,12.47,8.94,24.94,13.4,37.41.17.49.23,1.01.37,1.74-.61.14-1.08.32-1.56.32-8.49.02-16.97.02-25.46,0-.5,0-.99-.15-1.63-.26.14-.76.18-1.39.38-1.98,3.66-11.35,12.36-35.22,13.77-37.73h.02Z"/></svg>