<?xml version="1.0" encoding="UTF-8"?><svg id="b" xmlns="http://www.w3.org/2000/svg" viewBox="0 0 145.8 158.01"><defs><style>.d,.e,.f,.g{font-family:DINAlternate-Bold, 'DIN Alternate';font-weight:700;}.h{fill:#d84816;}.h,.f,.g{font-size:10px;}.e{letter-spacing:-.04em;}.f{fill:#e24223;}.i{fill:#f3e9d6;}.j{font-family:ComicSansMS, 'Comic Sans MS';}.k{fill:#535f5c;}.l{fill:#00474f;}.m{fill:#ed3800;}.n{letter-spacing:-.08em;}.o{letter-spacing:-.11em;}.p{fill:#eae1ca;font-family:BelyDisplay-Regular, 'Bely Display';font-size:14px;}</style></defs><g id="c"><path class="i" d="M72.9,0S0,.55,0,32.09v86.48c0,5.61,4.21,12.03,9.36,14.26l54.18,23.5c2.57,1.11,5.97,1.67,9.36,1.67s6.79-.56,9.36-1.67l54.18-23.5c5.15-2.23,9.36-8.65,9.36-14.26V32.09C145.8.55,72.9,0,72.9,0Z"/><path class="k" d="M140.2,32.09c0-12.55-17.36-19.09-31.93-22.37-17.01-3.83-34.37-4.1-35.37-4.12-1,.01-18.36.29-35.37,4.12-14.57,3.28-31.93,9.82-31.93,22.37v21.46h134.6v-21.46Z"/><path class="l" d="M75.65,59.52v92.73c1.69-.19,3.21-.55,4.38-1.05l54.18-23.5c3.08-1.33,5.99-5.77,5.99-9.13v-59.05h-64.55Z"/><path class="i" d="M92.39,89.25c1.09-.34,7.12-5.46,6.83-6.17-.37-.88-1.77-1.68-3.5-3.62-1.46-1.63-2.53-3.39-3.31-3.06-.91.38-6.7,5.44-6.78,6.32-.11,1.24,1.49,2.36,3.12,4.04,1.63,1.68,2.09,2.97,3.64,2.49ZM86.73,79.26c.53-.5,1.1-1.01,1.66-1.5-1.25-1.16-1.62-1.46-1.67-1.5-.21-.17-1.81-.78-2.07-.46-.26.31.4,1.67.55,1.9.03.05.33.35,1.54,1.56ZM130.33,77.49c.15-.23.84-1.38.58-1.69-.25-.3-1.95-.02-3.46,1.38.6.55,1.16,1.08,1.68,1.57,1.02-1.03,1.18-1.2,1.2-1.25ZM124.24,76.13c-.98-.93-2.58,1.22-4.04,2.85-1.46,1.63-3.84,2.18-3.37,3.4.39,1.01,5.91,6.26,7.17,6.65.86.27,1.84-.75,3.47-2.44,1.63-1.69,3.88-3.51,3.09-4.47-.58-.7-5.49-5.2-6.31-5.98ZM125.33,113.06c-2.47-1.57-10.02-9.7-12.49-12.51-.26-.3-.61-.66-1.01-1.07-.77.86-1.62,1.82-2.52,2.85,4.29,4.96,8.61,10.26,9.61,11.52,1.57,1.96,1.46,3.09,2.42,3.31.95.22,1.8-.51,2.36-1.52.56-1.01,2.35-2.13,1.63-2.58ZM120.09,87.84c-.63-.56-1.28-1.17-1.87-1.76-2.77,2.69-4.41,4.3-4.41,4.3,0,0-1.2-3.75-1.93-5.6-.73-1.85-.85-2.75-1.41-2.53-.56.22.54,2.05.82,5.62.27,3.54.07,4.29.07,4.29,0,0-1.73,1.55-3.7,3.42-3-2.75-7.06-6.48-7.06-6.48,0,0-.82-.72-2.62-2.39-.64.59-1.33,1.19-2,1.73,3.46,3.42,6.13,6.05,6.81,6.72.36.36,1.87,1.88,2.58,2.63h0c-.82.81-1.57,1.6-2.15,2.25-2.47,2.81-10.52,11.44-12.99,13.01-.71.45,1.06,1.57,1.63,2.58.56,1.01,3.2.17,4.78-1.8,1.57-1.97,12.54-15.14,16.14-18.68.71-.7,3.67-3.66,7.31-7.32Z"/><path class="m" d="M57.24,90c0,9.34-7.57,16.91-16.91,16.91s-16.91-7.57-16.91-16.91,7.57-16.91,16.91-16.91,16.91,7.57,16.91,16.91Z"/><path class="l" d="M70.57,90.77c.35,0,.64,0,.64-.35v-.84c0-.35-.28-.35-.64-.35h-.02c.66-.83,1.87-2.46.65-2.46h-6.52c-1.11,0-1.57.72-2.27,1.66-.28.37-.9.82-1.66.82h-10.32s-32.54,0-32.54,0c-.04-.23-.15-.57-.4-.62-.67-.14-1,.15-1,.15,0,0-.27-1.06-.97-1.32-1.01-.37-1.14-.04-4.61,1.03-3.32,1.03-3.97,1.22-3.97,1.51s.65.48,3.97,1.51c3.46,1.08,3.6,1.4,4.61,1.03.7-.26.97-1.32.97-1.32,0,0,.32.29,1,.15.25-.05.36-.39.4-.62h11.91s30.95,0,30.95,0c.75,0,1.38.45,1.66.82.7.93,1.15,1.65,2.27,1.65h6.52c1.23,0,.02-1.63-.65-2.46h.02ZM68.07,87.59h.31c.13,0,.16.09.08.2l-.99,1.27c-.09.11-.26.2-.38.2h-.31c-.13,0-.16-.09-.08-.2l.99-1.27c.09-.11.26-.2.38-.2ZM66.35,87.59h.31c.13,0,.16.09.08.2l-.99,1.27c-.08.11-.26.2-.38.2h-.31c-.13,0-.16-.09-.08-.2l.99-1.27c.08-.11.26-.2.38-.2ZM63.27,89.06l.99-1.27c.08-.11.26-.2.38-.2h.31c.13,0,.16.09.08.2l-.99,1.27c-.08.11-.26.2-.38.2h-.31c-.13,0-.16-.09-.07-.2ZM64.95,92.41h-.31c-.13,0-.3-.09-.38-.2l-.99-1.27c-.08-.11-.05-.2.07-.2h.31c.13,0,.3.09.38.2l.99,1.27c.08.11.05.2-.08.2ZM66.66,92.41h-.31c-.13,0-.3-.09-.38-.2l-.99-1.27c-.08-.11-.05-.2.08-.2h.31c.13,0,.3.09.38.2l.99,1.27c.08.11.05.2-.08.2ZM68.38,92.41h-.31c-.13,0-.3-.09-.38-.2l-.99-1.27c-.09-.11-.05-.2.08-.2h.31c.13,0,.3.09.38.2l.99,1.27c.08.11.05.2-.08.2ZM70.1,92.41h-.31c-.13,0-.3-.09-.38-.2l-.99-1.27c-.09-.11-.05-.2.08-.2h.31c.13,0,.3.09.38.2l.99,1.27c.09.11.05.2-.07.2ZM70.17,87.79l-.99,1.27c-.08.11-.26.2-.38.2h-.31c-.13,0-.16-.09-.08-.2l.99-1.27c.08-.11.26-.2.38-.2h.31c.13,0,.16.09.07.2Z"/><polygon class="l" points="41.56 83.16 48.14 69.59 46.27 68.33 41.48 78.26 41.48 70.92 39.18 70.92 39.18 78.26 34.39 68.33 32.52 69.59 39.1 83.16 19.28 123.97 35.23 123.97 40.33 108.31 45.44 123.97 61.38 123.97 41.56 83.16"/><text class="p" transform="translate(25.19 48.12)"><tspan x="0" y="0">I</tspan><tspan class="n" x="6.13" y="0">D</tspan><tspan x="16.41" y="0">AHO CITY</tspan></text><text class="h" transform="translate(44.31 34.93)"><tspan class="e" x="0" y="0">W</tspan><tspan class="d" x="7.95" y="0">ander Sites</tspan><tspan class="j" x="55.51" y="0"> </tspan></text><text class="f" transform="translate(80.73 135.8)"><tspan x="0" y="0">1862</tspan></text><text class="g" transform="translate(51.14 136.26)"><tspan x="0" y="0">ES</tspan><tspan class="o" x="11.3" y="0">T</tspan><tspan x="15.19" y="0">.</tspan></text></g></svg>