<?xml version="1.0" encoding="UTF-8"?><svg id="a" xmlns="http://www.w3.org/2000/svg" viewBox="0 0 889.67 87.52"><defs><style>.b{fill:#f4f2e6;}</style></defs><path class="b" d="M0,70.86c5.4-1.77,10.82-3.48,16.19-5.31,12.09-4.13,24.15-8.34,36.23-12.47,17.76-6.08,35.52-12.11,53.29-18.17,16.96-5.78,33.93-11.54,50.88-17.35,16.53-5.66,33.01-11.43,49.58-16.97,2.06-.69,4.61-.78,6.73-.28,14.11,3.35,28.16,6.96,42.24,10.43,16.92,4.16,33.86,8.25,50.78,12.4,13.19,3.23,26.37,6.51,39.56,9.75,22.44,5.51,44.89,10.99,67.33,16.51,5.15,1.27,10.27,2.44,15.68,2.14,6.92-.39,13.86-.37,20.79-.52,7.16-.16,14.32-.33,21.49-.45,10.87-.18,21.74-.31,32.61-.47,8.78-.14,17.57-.31,26.35-.46,9.71-.16,19.42-.3,29.13-.47,8.71-.15,17.41-.31,26.12-.46,9.02-.16,18.03-.31,27.05-.46,9.32-.16,18.65-.31,27.97-.46,8.94-.15,17.88-.29,26.82-.47,5.39-.11,10.78-.2,16.16-.47,9.08-.46,17.86,1.54,26.72,2.96,7.56,1.21,15.13,2.34,22.69,3.55,5.9.94,11.78,1.98,17.68,2.94,9.22,1.5,18.45,2.96,27.67,4.43,8.02,1.28,16.04,2.54,24.05,3.82,8.31,1.33,16.63,2.66,24.94,4.03,6.95,1.14,13.89,2.37,20.85,3.48,8.39,1.34,16.8,2.6,25.19,3.91,5,.78,9.99,1.56,14.98,2.38,1.24.2,2.08.75,1.93,2.3-.16,1.6-.14,3.23,0,4.84.14,1.7-.63,2.18-2.16,2.02-.69-.07-1.39-.01-2.08-.01-295.13,0-590.27,0-885.4,0v-16.61Z"/></svg>