<?xml version="1.0" encoding="UTF-8"?><svg id="a" xmlns="http://www.w3.org/2000/svg" fill="#46594D" viewBox="0 0 1200 418.12"><path d="M718.01,169.12c.33,0,.67-.04.99,0q3.8.56,6.39-1.9c.36-.34.69-.96,1.07-.99.5-.04,1.49.42,1.47.6-.12,1.55-.41,3.08-.72,5.01,1.06.15,2.4.35,3.87.56-.14.61-.1,1.22-.38,1.46-.96.82-2.13,1.41-3.01,2.3-.46.47-.64,1.4-.61,2.1.01.3.85.65,1.37.84.83.3,2.16-.62,2.52.76.48,1.83-1.7.91-2.27,1.94-.39.7-1.65.86-2.31,1.49-1.14,1.06-2.16,1.28-3.47.33-.23-.16-1.01.19-1.36.5-.83.73-.08.67.44,1.07,1.61,1.22,3.39.83,5.13.98.32.03.8.56.82.88.02.34-.34.92-.67,1.03-.59.21-1.43-.07-1.88.25-.6.43-1.26,1.21-1.32,1.89-.11,1.32,1.1.82,1.81.89.66.06,1.35-.07,1.99.04.4.07.95.34,1.08.66.29.71.13,1.99.56,2.2,1.24.59,2.68.76,4.03,1.12.9.23,1.82.42,2.69.76,1.75.68,3.46,1.39,4.87,2.78,1.45,1.43,3.98-.63,5.43,1.41.1.14.9-.11,1.29-.33.18-.1.26-.65.15-.89-.25-.57-.81-1.03-.93-1.61-.12-.59-.03-1.36.28-1.84.14-.21,1.06.1,1.63.17,4.3.49,8.41,2.86,13,.66,1.72-.82,4.1.23,6.06-1.07.99-.65,2.39-.65,3.52-1.13,1.82-.78,3.57-1.73,5.27-2.56-.79-.54-1.31-2.41-3.01-.76-.46.45-1.8,0-2.26.45-2.55,2.51-4.37,1.51-5.89-1.26-1.23,1.45-2.36,2.64-4.26,2.21-1.22-.28-2.28-1.12-3.55.47-.85,1.06-2.54.73-3.99-.02-1.6-.83-3.03-1.68-3.89-3.34-.23-.45-.77-1.04-1.18-1.05-1.8-.02-2.41-.97-2.96-2.57-.32-.92-1.44-2.51-3.03-.82-.77.83-1.59.33-2.02-.42-1.03-1.8-2.54-2.82-4.48-3.52-1.2-.43-2.21-1.41-4.18-2.73,2.68,0,4.31.04,5.94-.02.62-.02,1.49-.03,1.79-.41,2.09-2.59,3.76-1.13,5.59.34,2.01,1.6,2.7,1.3,3.55-1.28.59-1.77,1.62-2.18,2.96-1.17.13.1.25.22.35.35,4.17,5.19,9.02,3.36,13.96,1.44,2.74-1.07,5.57-1.88,8.5-2.85v-3.92c-1.16.82-1.95,1.29-2.63,1.89-2.14,1.91-2.13,1.93-4.55-.27-1.61.67-2,2.96-4.22,2.94-1.78-.01-1.84-.05-1.82-2.19,0-.62-.92-1.74-1.44-1.75-1.02-.03-2.11.45-3.07.92-2.12,1.03-3.8,1.48-6.13-.29-1.51-1.15-2.89-2.65-4.45-3.45-1.23-.63-1.12-1.88-1.98-2.19-.88-.32-1.98-.2-2.96-.07-2.7.35-3.64-1.5-5.04-3.78,1.39-.1,2.34-.06,3.23-.26,1.93-.44,4.63,1.4,5.65-1.84,1.57.15,3.14.24,4.7.46.59.08,1.15.43,1.71.68,2.74,1.23,3.63,1.09,5.46-1.05.49-.57.64-1.42,1.1-2.03,1.07-1.42,2.54,1.52,3.68-.31,1.35-2.18,2.8-.44,3.96.16,5.76,2.98,5.74,3.03,11.98,1.67-1.22-1.65-2.42-3.23-3.55-4.86-.13-.19.1-.74.3-1.03,1.08-1.56-.51-2.04-1.23-2.7-.21-.19-1.76.43-1.91.91-.62,2.07-2.15,3.04-3.92,3.78-.57.24-1.73.38-1.86.15-2.02-3.73-5.43-1.58-8.16-1.87-2.42-.26-4.17-1.26-5.89-2.8-1.03-.93-.33-1.66.27-1.74,3.48-.46,5.57-4.51,9.53-3.6.51-1.23,2.75-.51,2.63-2.9-.09-1.88,1.6-2.44,3.55-1.84.74.23,1.44.62,2.18.73.33.05.73-.41,1.1-.64-.33-.44-.56-1.04-1-1.28-.66-.37-1.59-.33-2.16-.77-.65-.51-1.56-1.5-1.42-2.05.22-.87,1.21-1.36,2.39-1.26,1.63.15,3.27.04,5.1.04,0-1.01.26-2.31-.05-2.47-.73-.37-2-.57-2.6-.17-1.53,1.02-2.52.71-3.86-.35-1.18-.93-2.77-1.33-4.14-2.02-.47-.24-1.14-.63-1.2-1.03-.1-.68-.52-1.69.76-1.97.67-.15,1.51-.83,1.92-.61.74.4,1.5,1.19,2.04.23.54-.98.52-2.28-.71-3-.52-.31-1.15-.53-1.75-.58-1.34-.11-2.35-.88-2.24-2.07.13-1.42,1.28-2.19,2.85-1.96.16.02.34.02.5,0,1.77-.22,2-.67,1.06-2.01-.66-.93-2.52-1.43-.88-3.14,1.72-1.79,2.43.52,3.45.9,1.28.47,2.17,1.98,3.45,3.25.63-.63,1.18-1.6,1.93-1.82.84-.24,2.18-1,2.67.96.2.78,1.88,1.1,2.34,1.94.51.9.04,2.42.63,3.2,1.12,1.51,2.23,3.14,4.29,3.78,1.15.36,2.14,1.28,3.17,1.99,1.09.75,2.41.26,2.44-1.07.04-2.58.11-5.08.95-7.61.83-2.51-.69-4.3-3.4-5.65-.2,1.01-.32,1.84-.53,2.64-.15.56-.37,1.52-.65,1.56-.74.09-2.06-.02-2.21-.41-.82-2.18-2.03-2.38-4.07-1.6-.79.3-2.01-.52-3.27-.9,1.86-2.34,3.35-4.34,6.15-5-1.95,0-3.91.06-5.85-.03-.75-.03-1.54-.3-2.21-.66-.35-.19-1.32-.64-.27-1.31,1.18-.76,2.36-1.54,3.7-2.41-.93-.66-1.53-1.41-2.24-1.53-1.66-.29-1.07-1.5-1-2.28.11-1.25,1.27-.78,1.97-.73.75.05,1.53.33,2.19.71,1.09.62,2.05,1.48,3.15,2.07.79.42,1.54.35,1.66-.89.12-1.23,1.04-1.22,1.72-.64,1.72,1.47,3.18,3.19,3.25,5.63.04,1.32.95,1.02,1.72,1.09,1.16.1,1.27-.53,1.32-1.5.11-2.09-.9-3.67-2.17-5.11-1.33-1.49-2.68-3.01-4.25-4.22-1.94-1.5-1.78-3.22-1.33-5.58,1.69,1.02,3.53.96,4.06,3.13.17.71,1.2,1.88,2.29,1.05.76-.57,2.21-1.23.95-2.73-1.77-2.1.95-3.78.62-5.76.63-.1,1.34-.43,1.86-.24.71.26,1.28.92,1.91,1.41-2.38,1.73.92,3.39.08,5.18-.32.69.06,1.66-.09,2.47-.11.61-.56,1.16-.3,2.11.63-.43,1.28-.85,1.89-1.3,1.28-.93,2.52-1.93,3.85-2.79.3-.19,1.04-.1,1.29.15.25.25.36,1.03.16,1.28-1.39,1.73-1.67,4.23-4.12,5.26-2.31.98-1.74,3.3-1.72,5.23,0,.71-.48,1.79.84,1.92,1.28.13,1.2-.83,1.13-1.64-.16-1.9.67-3.41,1.9-4.71.72-.76,1.36-1.19,2.16.24,1.3,2.31,1.44,2.21,3.82,1.13.84-.38,1.7-.78,2.59-.98,1.29-.3,1.93.45,1.33,1.64-.94,1.84-1.02,4.21-3.77,4.95-1.49.41-1.29,1.29.36,2.39.27.18.5.41.74.62.98.82.87,1.87-.39,2.06-1.42.22-2.92-.05-4.56-.12.04-.12-.17.17-.16.46q.09,3.56,3.42,2.06c.42-.19,1.06-.1,1.32-.39,1.32-1.44,1.4.6,2.92.82-1.87,1.47-3.36,2.64-4.83,3.8,2.04,2.26,3.77,2.68,6.24,1.24,2.12-1.23,4.47-1.99,6.62-3.4,2.09-1.37,4.75-2.45,7.57-2.17.75.07,1.46.22,1.79-1.03.65-2.45.78-2.39,2.4-1,.85.73,1.68,1.57,2.67,1.99.85.36,2.01,2.25,2.69.5.36-.93,2.51-2.22.45-3.75-.69-.51-.88-1.65-1.47-2.35-.95-1.11-1.87-2-1.99-3.75-.06-.88-.65-3.26-3.13-2.68-.9.21-2.16-.4-3.02-.98-.48-.33-.63-1.39-.59-2.1.02-.3.88-.74,1.39-.79,1.15-.12,2.33-.09,3.49-.02,1.06.07,1.9-.13,2.6-1.03.36-.46,1.07-.98,1.56-.93,1.55.17,3.05.68,4.6.92,1.22.18,2.4-2.2,3.74-.08.1.16,1.25-.09,1.25-.18.12-2.26,2.38-2.32,3.48-3.52.56-.61.95-1.89.69-2.6-.26-.71-1.38-1.36-2.22-1.53-1.28-.25-2.67-.18-3.98-.04-1.45.16-2.1-.77-2.65-1.75-.55-.96.28-2.25,1.47-2.26,1.33,0,2.45.11,2.82-1.71.12-.58,1.49-1.12,2.36-1.27,1.4-.24,2.77,0,4.15-.94.77-.52.99-.8,1.23-1.64.76-2.69,2.77-3.33,5.1-1.82.92.59,1.83,1.21,2.78,1.75.28.16.7.09,1.05.12-.1-.45-.05-1.12-.34-1.32-1.92-1.36-3.93-2.59-5.85-3.94-.67-.47-1.19-1.16-2.17-2.14,2.29-.05,4.23,0,6.15-.16.89-.08,1.83-.44,2.61-.9.82-.49.95-1.31.15-2.01-.49-.43-.68-1.37-1.83-.41-.95.8-2.4,1.73-3.85-.12-.73-.93-2.48-1.11-3.81-1.49-.84-.24-2.07.43-2.05-1.28.02-1.53.58-2.56,2.16-2.72,1.14-.12,2.31-.02,3.52-.02-1.46-2.15-1.47-2.12-5.1-4.05-.32-.17-.53-1.29-.3-1.59.45-.59,1.2-1.16,1.91-1.3,1.11-.21,2.29-.06,3.41-.06.73-.97-.34-1.09-.62-1.5-.36-.54-.96-.92-1.38-1.44-.8-.98-.8-3.01-.09-2.98,1.17.05,2.55-.73,3.53.69,1,1.46,2.13,2.83,3.41,4.51.63-1,1.19-1.7,1.55-2.5.48-1.07,1.12-1.07,1.87-.42.75.66,1.99,1.37,2.03,2.11.2,3.7,4.26,4.76,5.13,7.91.04.14.21.38.27.37,3.01-.72,3.64,3.07,6.46,3.26.42-3.6.98-7.21,1.22-10.84.19-2.87.02-2.88-3.96-4.15,0,.73.06,1.35-.01,1.96-.09.72.5,1.85-.77,1.96-.73.07-1.57-.2-2.25-.55-.56-.29-1.07-.84-1.41-1.39-.77-1.24-1.33-.58-2.22-.1-.54.29-1.5-.22-2.27-.36.2-.9.1-2.3.65-2.62,1.98-1.18,3.45-3.41,6.22-3.34-3.59-1-7.27-.26-10.88-.76.66-2.01,2.28-1.67,3.61-2.05.51-.14.96-.84,1.22-1.39.07-.16-.6-.74-1-1.02-.9-.63-1.91-1.11-2.73-1.81-.43-.37-1.8-.85-.44-1.71.58-.37,1.85-.76,1.97-.58,1.36,2.05,4,1.76,5.73,3.36,1.28,1.19,2.14.3.65-1.17.47-.47.92-1.3,1.42-1.33.67-.03,1.66.36,2,.9.99,1.56,1.69,3.29,2.56,4.93.37.7.86,1.33,1.82,2.79.07-2.35.09-3.88.17-5.41.09-1.6-.27-2.83-2.02-3.4-.72-.23-1.64-.79-1.85-1.41-.63-1.8-1.6-3.01-3.47-3.63-.4-.13-.62-1.36-.58-2.07.01-.3.86-.74,1.38-.81,1.14-.16,2.23-.15,3.1.97.86,1.11,1.96,2.02,3.44,3.5,0-2.32.04-3.96-.01-5.59-.05-1.72.89-3.02,1.89-4.2.42-.5,1.42-.66,2.17-.68,1.35-.05.92,1.09.93,1.81.04,3.3.02,6.6.02,10.19,2.02-1.48,3.71-2.81,5.5-3.98.8-.52,1.62.19,1.48,1.22-.08.61-.2,1.3-.55,1.76-1.47,1.91-2.85,3.95-4.63,5.55-1.55,1.4-1.99,2.88-1.82,4.79.1,1.13.02,2.27.02,4.54,1.94-3.24,4.42-4.88,4.02-8.13-.19-1.5.54-2.45,2.07-2.8,1.53-.34,1.75.7,2.24,1.75.32.68.94,1.7,2.13.43.66-.7,1.94-.94,2.98-1.12.75-.13,1.92-.13,2.3.32.9,1.06-.29,1.75-.97,2.34-1.49,1.3-2.06,3.42-4.13,4.28-.86.35-1.29,1.52.3,2.05.58.19,1.13.58,1.56,1.02.29.3.54.89.44,1.26-.07.3-.67.63-1.06.66-1.16.09-2.34-.06-3.49.07-.49.05-1.21.48-1.33.88-.27.89.95,1.73,2,1.52.77-.16,1.55-.42,2.31-.4.55.01,1.56.45,1.55.62-.08.82.76,2.15-.88,2.33-1.25.14-1.3.93-.82,1.67.53.82,1.27,1.76,2.12,2.04.63.21,1.58-.56,2.38-.91.56-.25,1.16-.81,1.67-.73,1.7.24,2.83-.54,3.8-1.74.77-.95,1.66-1.58,2.96-1.31.61.13,1.74.33,1.73.45-.06.91-.05,2.06-.6,2.65-.81.9-2.05,1.4-3.66,2.43,1.13.22,1.81.23,2.35.5.7.35,1.29.91,1.93,1.37-.55.53-1.14,1.56-1.64,1.52-2.71-.22-3.42,2.31-5.14,3.36.79,3.11,4.47.47,5.75,3.35-.46.46-1.09,1.05-1.67,1.68-.62.67-1.17,1.04-2.08.35-1.68-1.26-3.31-1.11-4.75.47-1.55,1.7-2.87,1.05-4.12-.38-.58-.66-1.34-1.28-1.98-.38-.25.35.3,1.36.63,1.99.22.42.68.72,1.29,1.33-.77.13-1.33.26-1.89.3-.98.08-1.96.09-2.94.16-.13,0-.29.2-.35.34-.38,1-.74,2-1.29,3.49,2.02-.28,3.59-.09,5.42-.42,3.32-.61,6.18-2.04,9.15-3.35.28-.12.62-.24.91-.19.61.1,1.2.31,1.79.48-.27.7-.54,1.4-.89,2.3,2.44.56,4.81.19,6.37-1.88,1.87-2.49,4.35-1.86,6.74-1.88.26,0,.79.69.73.96-.47,2.2.92,2.05,2.35,2.01,1.8-.06,3.61-.01,5.41-.01.04,3.31-.08,3.06-2.16,4.06-2.42,1.17-5,.74-7.81,1.04.99.8,1.94,1.21,2.17,1.86.26.74.55,1.95-1.15,2.07-1.86.13-3.19-.49-3.97-1.76-1.25,1.39-2.49,2.81-3.79,4.16-.17.18-.69.09-1.03.01-.45-.1-.89-.27-1.31-.46-2.63-1.21-2.59-1.21-2.98,1.77-.06.46-1.22,1.1.08,1.18,2.01.12,4.05-.17,4.4,2.65.01.1,1.14.25,1.62.06.86-.33,1.61-.93,2.43-1.37.79-.42,1.82-1.26,2.36-1.03.69.3.87,1.61,1.5,2.26.8.82,1.34,2.29,3.17.93.98-.73,2.84-.5,4.26-.33.56.07,1.07,1.13,1.42,1.83.06.13-.73.7-1.14,1.05-.11.09-.34.06-.43.16-2.61,3.07-3.71,3.87-6.31,4.88-.44.17-.93.76-1,1.23-.12.72-.29,1.49.98,1.81,1.31.34,2.48,1.26,4.2,2.2-.8.8-1.32,1.52-2.02,1.98-1.29.84-.53,1.61-.28,2.62.36,1.45.64.98,1.4.34,1.21-1.02,2.45-2.08,3.84-2.79.95-.48,2.19-.4,3.92-.67-.51.99-.95,1.52-1.06,2.12-.36,1.92.29,2.59,1.88,1.58,1.77-1.12,4.06.65,5.47-1.33.35.27.7.55,1.06.82.91.68.12,1.13-.31,1.39-1.06.63-2.18,1.15-3.31,1.66-.28.12-.8-.12-.97.04-.94.95-1.64,2.28-2.74,2.89-1.02.56-2.32.14-3.63.93-2.91,1.76-5.85,3.92-9.67,3.2-.67-.13-1.52-.36-1.86.93-.77,2.96-3.32,4.19-5.81,5.43-.42.21-1.08.86-1.01,1.01.26.55.71,1.24,1.23,1.4,2.67.81,5.36,1.7,8.1,2.13,2.03.32,4.27.59,5.82-1.62.47-.67,1.57-.96,2.43-1.29,1.3-.49,2.19.31,2.28,1.99.03.5,0,1,0,1.64,1.37.47,2.66.61,4.09-.16.79-.42,1.85-.42,2.79-.45.37-.01.82.35,1.09.66.14.17.07.76-.11.9-2.09,1.59-2.85,4.67-5.68,5.34-1.16.27-1.03.84-1.22,1.65-.34,1.47-2.4,2.5-3.79,2.06-.43-.14-.99-.72-1.2-.6-.96.55-1.79,1.31-2.71,1.94-.89.62-1.31-1.62-2.34-.41-.22.25-.47.47-.7.71.26.24.49.55.79.7,1.12.56,2.15,1.29,3.59,1.06,1.3-.21,2.66-.09,3.99-.03,1.2.06,2.12-.17,3.08-1.09,1.59-1.51,1.62-1.17,4.42.52,1.12.68,2.82.53,4.25.52,1.27,0,1.33.58,1.78,1.61.9,2.04.74,4.07.94,6.13.07.7.75,1.34,1.16,2,.59-.4,1.62-.73,1.69-1.2.33-2.11,1.6-2.69,3.44-2.49.57.06,1.39.26,1.58.65.26.51.27,1.51-.07,1.88-1.56,1.7-3.28,3.25-5.24,5.13,2.11.65,4.44-.33,5.66,1.92.2.37,1.83.29,2.57-.06.85-.4,1.45-1.34,2.15-2.05-2.16-2.29-2.17-2.36-.11-3.89.13-.1.23-.24.36-.35.12-.1.25-.21.39-.26.8-.27,2.31.67,2.3-.93-.01-1.53-1.23-2.17-2.74-2.07-1.24.08-1.45-.8-1.15-1.58.6-1.57.49-2.73-.88-3.89-.36-.3-.25-1.78.17-2.2.42-.42,1.95-.51,2.2-.17,1.75,2.42,5.05,1.8,7.03,3.77.34.34,1.8.1,2.2-.35.38-.43.28-1.59-.02-2.25-.32-.71-1.12-1.21-1.71-1.8,1.77-1.41.59-3.39,1.04-5.05.07-.26.84-.28,1.25-.5.98-.51.97-1.28.21-1.91-.71-.59-1.6-.95-2.39-1.44-1.13-.71-1.52-1.91-1.06-2.98.26-.61.84-2.53,2.33-.8.36.42,1.15.42,1.67.75,1.11.7,1.6.62,1.97-.82.42-1.64,1.96-.47,2.74-.17.48,2.24,1.13,3.95,1.97,5.57.22.43,1.05.55,1.6.82.21-.71.77-1.53.58-2.1-.53-1.58-1.33-3.08-2.14-4.54-.15-.28-.87-.37-1.29-.31-.25.04-.44.54-.71.57.41-1.7-.09-2.41-.8-3.22-.66-.75-.88-1.88-.68-3.36,1.62,1.02,3.25,2.04,5.3,3.33.15-1.33.33-2.35.37-3.37.06-1.5-.05-3,.05-4.5.04-.51.5-1,.76-1.49.54.31,1.37.49,1.57.94.62,1.4,1.91,2.56,1.66,4.32-.08.57.15,1.18.32,2.28,1.13-.87,1.81-1.55,2.63-1.97.67-.35,1.51-.56,2.25-.5.29.02.51.93.77,1.43-2.12.9-1.59,4.35-4.52,4.64-.55.05-1.09,1.45-1.39,2.32-.46,1.31-.71,2.69-1.05,4.05,2.12-1.16,2.08-1.18,4.27-4.26.45-.64.98-1.74,2.18-.46.34.37,1.76-.12,2.61-.42,1.01-.35,1.92-1.03,2.94-1.33.54-.16,1.22.19,1.84.31-.14.57-.26,1.14-.43,1.7-.04.14-.22.25-.34.36-1.43,1.27-1.94,2.29.59,2.82.49.1.83.89,1.23,1.36-.64.47-1.22,1.13-1.93,1.35-.76.24-1.66.12-2.48.04-1.14-.12-2.28-.37-3.41-.56-.03.16-.08.31-.07.47.08,2.23,2.36.3,3,1.58.21.42.86.66,1.01,1.08.97,2.73,3.2,2.46,5.42,2.48,1.86.02,2.43-1.56,3.46-2.5,1.41-1.28,2.13-.17,2.76.68.83,1.11.37,1.67-1.02,1.84-.53.06-1.02.78-1.45,1.26-.56.63-.1,1.56.84,1.66.66.07,1.35-.08,1.99.05.36.07.88.48.92.79.05.36-.32,1.09-.56,1.12-1.95.2-2.32,2.02-4.64,3.35,1.99.38,2.82.5,3.63.71.56.15,1.09.43,1.63.65-.27.55-.47,1.16-.84,1.65-.94,1.24-2.1,1.97-3.79,1.72-1.14-.17-2.33-.1-3.49.01-.32.03-.8.56-.82.88-.02.35.36.97.66,1.04,1.22.27,2.49-.3,3.7.83.82.76,2.26,1.04,3.46,1.17,1.78.19,1.07-2.01,2.25-2.71.98-.58,1.69-1.44,3-1.27.98.13,2.05-.17,2.99.06,3.31.82,5.54-2.24,8.59-2.25-.04-.57.13-1.4-.18-1.65-.7-.57-1.63-.85-3.62-1.8,1.19-.55,1.88-.69,2.31-1.1,1.44-1.39,3.09-2.59,5.07-2.15,1.92.43,4.17.48,5.53,2.27,1.52,1.99,3.91,1.85,5.93,2.61.31.12.83-.31,1.25-.49-.27-.49-.44-1.12-.85-1.44-.59-.46-1.33-.8-2.06-1.01-2.39-.7-3.89-1.96-2.87-5.09-4.25.39-7.64-.37-9.49-4.67,3.98-.44,7.63-.8,11.27-1.28,1.05-.14,2.05-.7,3.09-.95,1.2-.29,1.2-1.07.62-1.76-1.05-1.24-2.28-2.33-3.7-3.75-1.11,1.11-1.95,2.1-2.94,2.89-1.54,1.24-4.28.71-5.03-.97-.31-.7-.29-1.54-.42-2.32-2.46,1.13-3.03-2.34-5.13-2.11-.33.04-.67-.02-1,0-1.41.12-2.68-1.29-2.34-1.8.71-1.04-.12-3.06,2.12-3.26,2.17-.19,4.3-.87,6.53-1.36.14-.85.94-1.97-.72-2.61-.71-.27-1.83-.86-1.85-1.35-.13-2.38-2.23-2.74-3.62-3.34-1.33-.57-1.89-1.1-1.56-2.35.3-1.14,1-1.99,2.42-1.95,1.83.06,3.67.05,5.5-.02.36-.01.78-.4,1.02-.73.13-.18.02-.69-.16-.89-.66-.75-1.33-1.51-2.11-2.12-2.26-1.77-3.33-3.95-2.55-6.91,2.07-.93,3.59-.21,5.14,1.38,1.68,1.72,3.68,3.11,5.55,4.64,1.16.94,2.3,1.07,3.41-.08.23-.24.46-.48.71-.71,2.78-2.47,5.53-1.99,7.04,1.23-.84,2.42,2.02,3.04,2.48,5,.28,1.2,1.81,2.14,1.57,3.85-.07.51.33,1.28.76,1.64,1.96,1.64,4,3.18,6.03,4.73.62.48,1.81.81,1.87,1.31.25,2.16,2.23,1.93,3.42,2.63,1.39.83,3.06,1.18,4.87,1.84,0-2.4-.1-4.87.03-7.32.08-1.61-.88-1.32-1.87-1.49-1.34-.23-1.61-1.05-.7-1.89.77-.71,1.77-1.17,2.52-1.89,2.7-2.58,2.19-5.99,1.91-9.14-.13-1.51-1.45-2.86-3.33-3.04-.79-.08-1.59-.14-2.37-.31-1.47-.32-2,.1-1.54,1.45.38,1.09.95,2.12-.44,2.87-1.03.56-2.08,1.08-3.18.02-.56-.54-1.35-.85-1.9-1.41-1.34-1.35-2.45-2.54-4.57-.86-.83.66-2.58.03-3.85.29-2.05.41-1.65-1.57-2.43-2.35-1-1.01.21-1.76.9-2.33.83-.69,2.08-1.01,2.7-1.83,1.7-2.23,3.87-2.77,6.49-2.57.89.07,1.9-.23,2.71-.63.45-.23.61-1.03.91-1.58-.52-.25-1.01-.63-1.55-.72-2.12-.34-4.08.63-6.09.87-3.29.39-6.66.19-9.98.05-.84-.04-1.65-.81-2.65-1.33,3.25-2.15,6.26-4.14,9.34-6.17-1.87-1.2-2.69-3.7-5.61-3.63-1.12.03-1.81-1.76-1.41-3.37,3.36-1.7,6.41.22,8.6,2.02,2.1,1.73,4.66,1,6.52,2.53.17-.27.53-.59.48-.81-.09-.43-.58-.81-.6-1.23-.03-.61.02-1.48.39-1.77.42-.33,1.49-.44,1.86-.14,1.64,1.38,3.85,2.69,4.47,4.5.55,1.59,2.12,2.94,2.05,4.07-.17,2.39,1.72,2.41,2.74,3.34.87.79,2.08,1.22,3.29,1.89.61-4.25-.35-8.07-2.98-11.53-.45-.59-.59-1.41-.86-2.14-.11-.29-.08-.82-.24-.87-2.09-.69-4.14-1.38-4.11-4.15-3.75-.92-4.13-5.19-6.98-7.06-1.06-.7-.44-2.67.79-3.07,2.32-.75,4.73.3,6.79,2.69,1.62,1.88,3.44,3.58,5.17,5.35,2.05-2.65,1.79-5.66,1.5-8.49-.43-4.27,1.6-7.11,4.64-9.56.2-.16.64-.02,1.42-.02v9.35c0,3.83-.02,7.66.03,11.5,0,.39.33,1.01.63,1.09.36.1.96-.13,1.28-.41,1.11-1.01,2.13-2.11,3.2-3.16,1.49-1.47,3.05-2.8,4.81-4,1.58-1.08,2.44-1.85,3.95-.05.93,1.1,2.25,1.08,3.38-.07.57-.59,1.21-1.11,2.06-1.89-1.6-.87-2.89-1.85-4.36-2.29-1.58-.47-.94-1.58-.87-2.35.03-.3,1.4-.83,1.96-.64,1.3.45,2.45,1.3,3.7,1.92,2.99,1.48,3,1.46,5.93-1.14,2.07,2.51,4.09,5.05,6.21,7.49.33.39,1.1.39,1.67.58.14-.61.49-1.26.38-1.82-.46-2.34-3.45-6.32-5.45-8.17-1.51-1.4-2.6-3.25-3.95-4.83-.63-.73-.86-1.35-.1-2.07.69-.65,1.17-1.52,2.44-.68,1.59,1.04,3.35,1.77,4.13,3.73.17.42.88.62,1.34.92.2-.39.57-.78.58-1.18.07-1.66-.22-3.38.1-4.98.29-1.47,1.05-2.91,1.89-4.18.32-.49,1.44-.64,2.18-.61,1.31.04.83,1.18.84,1.89.04,3.96.02,7.92.02,11.98,2.23-2.03,4.19-3.91,6.3-5.6.32-.26,1.37.22,2,.52.83.4.48.8,0,1.42-1.73,2.25-3.03,4.93-5.07,6.83-1.96,1.83-2.45,3.73-2.25,6.13.07.81.01,1.63.01,2.55,2.4-1.82,2.36-1.83,3.02-4.71.17-.73.71-1.37.96-2.1.23-.68-.44-1.88.86-1.9,1.05-.02,2.95.22,3.02.61.44,2.33,1.84,1.41,2.92,1,1-.37,1.82-1.29,2.83-1.61,1.13-.36,2.21-.01,3.04,1.06.95,1.22-.09,1.71-.68,2.44-1.2,1.49-2.35,3.03-3.55,4.52-.67.84-2.48,1.75.27,2.13.14,1.45.27,2.89.46,4.81-1.13,0-2.1-.15-3,.04-1.17.25-1.83-2.32-2.87-.66-.55.89-.1,2.4-.1,4.12.99-.6,1.71-.79,2-1.25.89-1.37,2.17-1.32,3.51-1.25,1.02.05,1.95,1.69,1.27,2.46-1.2,1.38-2.57,2.6-4.04,4.06.48.19.83.34,1.19.48,4.08,1.58,7.44.02,10.74-2.28,1.23-.86,2.5-2.02,4.27-1.72,1.55.27,2.02-.44,1.93-1.93-.02-.33.73-1,1.16-1.02,1.99-.11,4-.08,6-.04,1.09.02,2.06.01,1.79-1.52.9-.09,1.89-.46,2.68-.21.86.27,1.47,1.5,2.3,1.62,1.01.15,1.56,2.3,2.91.71-1.33-1.08.73-2.41.03-3.05-1.57-1.44.06-1.79.62-2.64,2.03,3.18,5.91,3.53,8.62,5.69.44.35,1.2.32,1.83.38,3.75.37,7.16-1.02,10.61-2.13.43-.14.84-.89,1.13-.82,4.35,1.11,5.99-3.28,9.14-4.94-.95.12-2.05-.02-2.82.42-1.97,1.12-3.76,2.3-6.03.54-.36-.28-1.46.29-2.17.6-.85.37-1.62.91-2.45,1.32-2.36,1.17-3.22.64-3.4-2.05-.03-.5.02-1,0-1.5-.07-1.09-1.43-1.94-2.33-1.43-.42.23-.88.55-1.09.95-1.02,2-3.3,1.78-4.89,2.75-.41.25-1.42-.21-2-.58-1.35-.87.09-1.25.45-1.72.55-.7,1.24-1.28,2.63-2.67-1.93.36-2.87.39-3.68.73-.85.36-1.54,1.1-2.38,1.5-.77.37-1.89.95-2.4.66-.67-.39-.9-1.55-1.3-2.38-.2-.41-.26-1.07-.56-1.21-.84-.38-1.85-.4-2.66-.81-1.25-.64-.3-1.2.22-1.74-.43-.17-.85-.45-1.29-.48-1.58-.11-3.09,0-4.65-.91-.94-.55-1.16-1-1.01-1.78.1-.49.51-1.04.94-1.31,1.64-1.01,11.39-2.41,12.92-1.5,1.9,1.12,4.35-.55,5.9,1.48,1.81-.62,3.11-1.72,3.18-3.76.04-1.17.94-1.69,1.5-1.13,1.35,1.36,2.21.97,3.19-.26.69-.87,1.32-1.1,2.44-.32,2.16,1.49,4.82,2.1,6.9,3.89,1.47,1.27,6.62.71,7.67-.68.4-.53.55-1.86.19-2.26-1.9-2.08.29-2.11,1.24-2.41.91-.29,1.98-.06,2.98-.06q2.71-.01,5.89-1.47c-1.6-.51-3.19-1.39-4.8-1.43-1.64-.04-3.49.45-4.9,1.29-.99.59-1.83.52-2.77.6-1.55.13-1.62-.19-.65-1.45.79-1.03-.47-1.88-1.21-2.31-1.22-.71-1.2.5-1.78,1.21-1.41,1.7-3.35,2.97-5.17,4.29-.33.24-1.3.07-1.63-.25-.52-.52-.67-1.38-1.12-2-.93-1.3-2.09-2-3.76-1.17-4.29,2.12-7.62-.2-10.85-2.54-.72-.52-.62-1.78.52-1.69,1.62.13,2.57-.71,3.28-1.77,1.52-2.27,3.66-2.52,6.07-2.32.99.08,2.11.29,2.97-.06,1.07-.44,2.7-1.09,1.41-2.82-1.04-1.4.63-1.95.98-2,1.46-.24,3,.05,4.47-.17.69-.1,1.28-.89,1.91-1.38-.58-.52-1.08-1.3-1.75-1.5-1.19-.35-2.58.39-3.64-.95-.78-.99-.73-1.37.39-2.14,1.91-1.32,4.03-.9,6.1-1.01.33-.02.86-.49.91-.81.09-.61,0-1.31-.25-1.87-.1-.22-1.07-.36-1.26-.16-1.57,1.61-2.94,1.19-4.14-.35-1.12-1.44-2.47-2.08-4.28-1.79-.49.08-1.15.21-1.47-.03-.62-.47-1.25-1.12-1.48-1.83-.13-.39.43-1.32.9-1.53,1.83-.81,3.74-1.43,5.59-2.1-.38-.4-1.06-.98-1.54-1.7-.65-.96-1.21-1.95-2.59-1.79-1.04.12-1.52-.26-1.45-1.36.05-.82-.08-1.5,1.16-1.7,1.51-.24,2.96-.9,4.67-1.45-.52-.63-1.44-1.32-1.74-2.22-.32-.99-.07-2.17-.07-3.41,3.17.58,4.91,2.49,6.95,4.61,1.61-2.16,3.63-2.94,6.05-2.48.06,1.27-.32,2.56,1.01,3.58,1.12.86,1.83,1.93,2.16,3.59.33,1.68,1.75,3.48,3.19,4.54,2.33,1.72,5.07,2.89,7.64,4.29v386H0V74.12c.9-.07,2.06.42,2.02-1.29-.08-3.14-.02-6.28-.02-9.8,1.47.19,3.16-.08,3.8.61.84.92.89,2.58,1.18,3.95.13.64-.07,1.35.05,1.99.16.86-.69,2.29.74,2.44.72.07,1.56-.94,2.32-1.49,1.13-.82,1.14-3.09,3.43-2.44,1.06.3,2.01,1.4,1.44,2.33-.41.66-1,1.45-1.67,1.65-1.63.51-2.49,1.35-2.32,3.12.03.26-.22.78-.38.8-4.68.49-3.36,4.08-3.6,6.87-.01.17-.07.41.01.49.31.29.68.73,1.01.72.33,0,.82-.43.95-.77,1-2.72,2.35-4.91,4.67-7.32.48.87.88,1.7,1.39,2.46.13.2.66.32.9.22,1.28-.54,2.5-1.2,3.78-1.73.86-.35,1.76-.67,2.67-.76.51-.05,1.07.4,1.61.63-.32.44-.58.96-.98,1.31-1.06.93-2.17,1.78-3.62,2.95,1.43.86,2.44,1.43,3.41,2.07.44.29.8.72,1.2,1.09-.47.3-.92.84-1.4.86-2.46.09-4.93.04-7.55.64,1.17.48,2.37.89,3.48,1.48.56.3,1.14.84,1.38,1.41.24.56.3,1.43.02,1.92-.23.39-1.23.72-1.64.54-1.39-.63-2.52-.82-3.45.69-.25.41-.65.77-1.05,1.06-1.27.91-2.62.14-2.78-1.57-.05-.5.14-1.07-.05-1.48-.15-.32-.93-.72-1.09-.6-1.28.91-3.06,1.56-2.84,3.58.17,1.56-.67,3.22.7,4.74.51.57.22,1.88.27,2.85.07,1.27.11,2.53.18,4.27,2.19-1.24,3.67-2.81,5.8-2.97,1.12-2.55,3.94-3.73,5.05-6.32.61-1.42,1.39-2.81,2.35-4.01,1.29-1.62,1.35-1.5,2.77.41.37.5,1.24,1.07,1.71.95.79-.2,2.07-1,2.03-1.44-.19-1.97.69-2.44,2.31-2.07.95.22,2.46-.98,2.79.97.26,1.53-.55,2.43-1.87,3.01-.4.17-.83.38-1.09.69-.14.17,0,.63.12.91.05.1.46.11.67.05.75-.19,1.48-.46,2.23-.66,1.38-.37,2.4.47,2.83,1.48.58,1.34-.72,1.94-1.69,2.52-1.34.79-2.7,1.54-4.01,2.37-.18.11-.22.62-.15.9.06.27.34.69.54.7,1.33.06,2.67.08,4,.02,1.04-.05,1.52.28,1.45,1.38-.05.82.08,1.86-1.16,1.61-1.88-.38-2.3,1.7-3.68,2.01-1.2.27-1.99,1.69-3.79.17-2.11-1.8-2.89-1.07-3.44,2.71,1.79.05,3.55.09,5.31.15.81.03,1.68-.05,2.41.23.52.19.96.84,1.19,1.39.07.17-.66,1-.99.98-2.97-.18-3.99,3.08-6.53,3.64-.18.04-.4.97-.23,1.27.18.3.97.6,1.23.45,1.35-.81,2.54-1.91,3.92-2.64,1.48-.79,3.6-.2,3.63,1.18.09,3.31,2.34,3.35,4.49,3.45,1.56.08,2.72.11,3.16,2,.25,1.06,1.52.91,2.49,1.14.77.19,1.61,1.09,1.88,1.86.15.44-.65,1.5-1.27,1.86-2.63,1.51-5.74,1.97-8.31.75-1.86-.88-2.37-.05-3.17.85-.61.68-1.15,2.32-1.41,2.26-1.11-.28-2.24-.88-3.13-1.63-1.46-1.24-2.75-2.69-4.61-4.55,0,1.63-.08,2.59.02,3.54.14,1.42-.2,2.18-1.84,2.03-.36-.03-.92.61-1.15,1.07-.4.79-.6,1.67-.89,2.51.9.24,1.86.35,2.7.73,2.25,1.02,4.2,1.15,6.19-.78,1.06-1.03,2.65-1.59,4.08-2.13.8-.3,2.19-.52,2.62-.09,1.5,1.52,4.3-.56,5.41,2.47.96,2.63,2.34,2.78,4.9,1.61,1.58-.72,3.03-1.75,4.91-1.45.49.08,1.39-.11,1.44.03,1.02,3.22,3.66,1.65,5.64,1.99.72.12,1.79-.48,1.97.81.14.99.13,2.01-.91,2.61-.4.23-.95.66-1.24.54-2.96-1.22-4.51,2.38-7.2,2.12-.16-.02-.6,1.03-.6,1.58,0,1.1-.45,1.43-1.48,1.36-1.26-.08-2.45-.3-2.82,1.64-.21,1.12-1.22,1.12-2.49.45-1.82-.96-3.42-3.23-6.04-1.81-.61,1.4.63,3.8-1.41,4.26-1.57.36-3-1.13-4.16-2.4-1.11-1.21-2.29-2.38-2.83.47-.02.12-1.19.25-1.61,0-1.22-.71-2.31-1.65-3.52-2.4-.33-.2-.88-.05-1.34-.06.01.57-.21,1.37.08,1.66.98,1.01,1.78,2.04,3.55,2.32,2.2.34,4.32,1.6,6.34,2.71,2.74,1.51,5.67,1.36,8.52,1.04,1.62-.18,3.13-1.27,4.43-2.57,2.13-2.13,3.05-1.94,4.39.87.74,1.54,1.13,2.75,2.84.88.6-.66,1.59-.96,2.38-1.45.89-.56,1.45-2.37,2.69-1.39.65.51.43,2.11.63,3.38.95-.19,2.06-.5,3.18-.59,1.11-.09,2.15-.1,3.16.87.83.79,2.29.88,3.33,1.51,1.35.81,2.45,2.14,3.87,2.73,2.3.97,4.61,2.3,7.34.91,1.44-.73,1.09-1.33.33-2.13-1.03-1.09-2.11-2.13-3.41-3.42.52-.5,1.02-1.37,1.57-1.4.66-.04,1.56.48,2,1.04,1.05,1.33,2.42.81,3.67.79.26,0,.72-.94.71-1.45,0-.5-.45-1.39-.76-1.41-1.63-.14-3.27-.07-5.3-.07.22-1.16.11-2.26.6-2.89,1.3-1.67,1.52-2.65-.08-2.99-2.53-.54-2.43-2.71-3.33-4.2-.4-.66-.44-2.08,1.25-1.93,1.11.1,2.12-.05,3.16.89,1.85,1.65,1.98,1.5,3.51-.76.89-1.31,1.53-1.44,2.3-.28.68,1.02,1.71,2.26,1.59,3.28-.29,2.44,1.3,3.49,2.71,4.97,1.51-2.76-1.33-5-.67-7.58.09-.33-.79-1.23-1.33-1.35-2.86-.63-3.46-2.97-4.15-5.24-.16-.53-.11-1.13-.15-1.7.57.09,1.4-.02,1.66.31,1.33,1.69,4.48,1.52,4.44,4.59.06-.99,2.29-.67,1.05-2.34-.66-.88-.49-2.51-.39-3.78.08-1.05.73-2.04.91-3.1.16-.91.03-1.88.03-3.07,2.98.52,3.39,2.66,3.95,4.53.27.92-.03,1.99.08,2.98.06.57.28,1.47.63,1.59,1.03.33.98-.76,1.44-1.28,1.09-1.23,2.69-2.01,4.42-3.2.79,2.46.71,4.06-1.03,5.63-2.37,2.15-4.6,4.36-5.83,7.56-.58,1.51-.56,2.72-.44,4.27,1.2-.86,2.79-.64,2.97-2.95.12-1.63,1.86-3.21,3.07-4.65.57-.68,1.58-.64,1.71.57.13,1.21.82,1.34,1.64.95.98-.47,2.04-.99,2.74-1.78.9-1.01,1.91-1.24,3.08-1.04.55.09,1.5.48,1.49.7-.04.81.72,2.01-.93,2.32-.71.14-1.32.85-2.15,1.42,1.4.99,2.67,1.87,3.9,2.81.2.15.33.67.22.86-.2.35-.59.6-.93.85-.11.08-.33-.01-.49.02-1.84.32-3.86-.74-5.55.74,1.24,1.49,2.47,2.98,3.71,4.46.09.11.15.23.23.35-.27.15-.55.43-.82.41-1.26-.05-2.7.47-3.6-.95-.94.93-1.82,1.93-2.85,2.76-.89.72-2.41.25-2.65-.8-.2-.88.37-2.05-1.34-2.01-1.56.04-2.46.69-2.68,2.22-.07.49-.11,1.02,0,1.49.68,2.83,1.27,5.64,1.05,8.59-.03.46.69,1.17,1.22,1.4.29.12.89-.57,1.38-.84,1.93-1.05,4.22-1.47,5.56-3.52.69-1.05,1.4-1.98,1.94-3.2.88-1.97,2.84-3.49,4.49-5.05.17-.16,1.37.58,1.95,1.07,1.23,1.06,2.01,1.65,2.53-.66.21-.96,1.42-2.01,2.42-2.38.94-.35,2.58-.25,3.22.36.92.88-.51,1.59-1.05,2.33-.36.49-.63,1.04-1.14,1.9,1.62.2,2.93.17,4.08.59.59.22,1.12,1.19,1.25,1.9.07.43-.6,1.15-1.11,1.46-.5.31-1.33.09-1.81.41-.75.49-1.62,1.13-1.91,1.91-.27.71-.59,2.05,1.12,2.08.93.02,1.93.16,2.77.53.47.21.86.98.94,1.54.03.23-.82.63-1.3.9-1.49.81-3.09,1.47-4.48,2.43-1.11.76-2.12.99-3.07.1-1.4-1.31-2.08-.09-2.76.71-.6.7-.62,1.54.58,1.75.95.16,2.36-.17,2.8.36,1.22,1.45,1.55-.88,2.37-.34.67.43,1.3.92,2.03,1.43-1.35.97-1.94,2.55-3.98,2.71-1.1.09-2.09,1.69-3.08,2.66-.12.12.06.61.21.88.04.07.47,0,.67-.1,1.38-.69,2.73-1.46,4.13-2.1,2.18-1,3.55-.61,3.84,1.75.29,2.3,2.16,2.44,3.24,2.61,1.72.28,3.1.57,4.25,1.96.45.55,1.35,1.02,2.02.98.39-.02.6-1.25,1.1-1.7.55-.5,1.31-.84,2.04-1.06,1.34-.41,2.7-.83,4.08-.97,1.04-.11,1.19-.47,1.45-1.43.81-3.02,1.41-3.21,4.34-1.71,1.37.7,2.68,1.5,4.33,2.44q-1.68-3.02-4.11-4.35c-.81-.45-1.69-.81-2.43-1.36-.43-.31-1-1.06-.88-1.35.22-.53.88-1.18,1.41-1.23,1.65-.16,3.33-.1,4.99-.04,1.17.04,1.31-.56,1.31-1.53,0-.99-.3-1.88-1.31-1.44-4.69,2.03-7.46-1.42-10.67-3.39.97-2.04,2.74-1.58,4.35-1.68.55-.04,1.07-.43,1.6-.67-.28-.55-.44-1.25-.87-1.62-.96-.81-2.1-1.39-3.07-2.18-.46-.38-1.08-1.12-.97-1.53.19-.71.76-1.63,1.39-1.85,1.02-.35,2.22-.2,3.88-.29-.87-.87-1.62-1.3-1.85-1.93-.3-.82-.5-1.96-.14-2.64.43-.82,2.96-.22,3.65.69.58.76,1.11,1.56,1.75,2.27.95,1.05,1.57,1.47,2.33-.42.81-2.01,2.72-1.82,3.9.18,1.1,1.87,2.06,3.83,3.2,5.67.83,1.34,1.8,2.62,2.83,3.82.95,1.11,2.77.14,3.85,1.72.88,1.3,2.84.52,3.12-1.04.11-.65.02-1.33.02-2v-10.04c-1.33.12-2.4-.96-3.15,1.25-.73,2.16-2.35,2.26-4.21.65-1.01-.87-1.95-.94-3.1-1.08-.88-.1-1.7-.71-3.25-1.42,1.08-.77,2.08-1.1,2.3-1.71.46-1.24,2.82-.18,2.35-1.9-.48-1.79-2.21-.72-3.35-.84-.66-.07-1.36.67-2.09.9-1.25.4-1.87-.67-2.35-1.41-.48-.75-.13-1.33.99-1.63,1.16-.31,2.17-1.18,3.24-1.81.14-.08.24-.23.64-.63-1.23-.87-2.44-1.67-3.55-2.57-.3-.25-.51-.91-.4-1.27.09-.3.71-.57,1.11-.62,2.93-.32,4.87,1.9,7.39,2.75.53-.82,1.17-1.82,2.02-3.13,1.26,2.22,2.34,4.12,3.42,6.01.38.67.69,1.42,1.2,1.99.25.28.87.32,1.32.3.17,0,.46-.49.46-.76.02-1.44.22-2.92-.96-4.1-.26-.26-1.58-2.06-2-2.58-.77-.99-1.32-2.17-2.17-3.08-.82-.88-2.2-1.35-2.72-2.32-.24-.45-1.81-1.1-.53-2.29,1.02-.95,2.17-1.21,3.05-.53,1.4,1.07,2.49,2.55,3.76,3.91.69-1.15,2.43-1.52,1.21-3.06-1.82-2.3.3-3.8,1.28-5.43.29-.49,1.41-.65,2.16-.66,1.34-.03.9,1.11.91,1.83.04,2.67,0,5.33.05,8,0,.38.34,1,.64,1.08.37.1.96-.13,1.27-.42,1.22-1.13,2.28-2.47,3.61-3.44.45-.33,1.64-.03,2.25.36.33.21.4,1.35.14,1.83-.46.84-1.28,1.47-1.91,2.22-1.78,2.09-3.56,4.18-5.29,6.32-.37.46-.76,1.15-.69,1.68.15,1.18-.8,2.77.74,3.47.85.38,3.05-1.9,3.18-3.17.1-.99.14-2.02,0-2.99-.21-1.44.67-2.28,1.66-2.71,1.43-.63,2.96.25,3.25,1.46.58,2.41,1.37,1.64,2.52.58.46-.42,1.05-1.07,1.53-1.03,1.02.08,2.52-.89,2.99.7.28.95.28,1.83-1.39,2.46-1.48.57-1.2,3.7-3.55,4.27.27.5.49,1.4.8,1.43,2.06.23,1.38,1.94,1.03,2.57-.53.94-1.46,2.52-3.03.83-.77-.83-1.42-.2-2.06.4-.53.5-.8.79-.11,1.45,1.14,1.09,2.17,1.16,3.46.28.41-.28,1.47-.36,1.61-.14.31.49.49,1.37.24,1.83-.57,1.09-1.43,2.03-2.15,3.02,3.37,3.07,6.23.71,8.96-.55,2.25-1.04,4.09-2.96,6.31-4.1,2.06-1.05,4.33-.94,6.71.44.13-1.2.26-2.41.39-3.69.23.03.51-.02.69.09,1.87,1.14,3.72,2.31,5.79,3.61.99-1.25,2.04-2.57,3.26-4.1,1.03.59,2.57,1,3.38,2.01,2.75,3.44,6.33,2.36,9.51,1.67,3.58-.77,6.78-2.93,10.48-3.65.97-.19,1.73-1.44,2.59-2.2-1.93-2-1.96-2.04-3.52-.54-1.45,1.4-2.75,3.06-4.89.9-.17-.17-1.31.24-1.61.66-1.21,1.66-2.83,1.35-4.65,1.15v-3.4c-.58-.19-1-.42-1.43-.45-2.02-.16-3.59.7-5.25,1.85-2.04,1.42-2.18,1.18-3.53-.73-.31-.43-.78-1.09-1.15-1.08-1.83.07-3.34-.03-2.84-2.51-1.92-.3-2.71-2.72-4.92-2.57-1.26.09-2.45-.46-3.64-.78-2.28-.61-1.18-1.82-1.39-3.19,1.94,0,3.74-.05,5.54.02,1.2.04,2.2-.08,3.06-1.12,1.27-1.55,2.8-1.07,4.4-.37,4.16,1.83,4.16,1.78,7.54-1.58.43-.42,1.05-.87,1.6-.9,2.16-.1,4.34-.14,6.49.01.69.05,1.36.71,2,1.15,1.59,1.08,3.21,2.19,5.25,1.76,1.35-.28,2.7-.75,3.9-1.4.6-.33-.16-2.05-2.11-3.49-.95-.7-.55-1.37-.75-2.07-.3-1.03-.66-2.04-.93-2.86-2.3,2.05-4.33,3.92-6.47,5.67-.27.22-1.5-.1-1.6-.4-.98-2.83-3.31-2.63-5.46-2.36-2.9.36-5.26-.87-7.67-2.06-1.11-.55-1.27-1.76-.17-2.08,3.15-.93,5.3-4.08,8.89-3.91,1.4.07,2.5-.92,2.32-1.94-.35-2.02,1.18-1.93,2.12-2.61,1.34-.97,2.36-.57,3.45.46.54.51,1.36.71,2.03,1.09.65.37,1.27.79,2.39,1.49-1.87-3.26-1.88-3.23-4.22-4.52-.56-.31-1.05-.8-1.45-1.3-.48-.61-.81-1.32-1.21-1.99.7-.23,1.39-.59,2.11-.66,1.16-.11,2.34-.12,3.5,0,1.65.15,1.38-.94,1.4-1.92.04-1.31-.92-1.19-1.69-1.07-.58.1-1.08.67-1.66.77-.76.13-1.84.34-2.3-.06-1.46-1.27-2.94-2.32-4.85-2.88-.41-.12-.4-1.65-.65-2.87,1.33,0,2.3.05,3.26-.02.72-.05,1.85.44,1.85-.89,0-.75-.3-1.53-.64-2.22-.19-.38-.7-.77-1.12-.84-1.06-.17-2.49.39-2.22-1.62.24-1.76,1.24-2.5,2.97-2.43.28.01.58-.2,1.03-.37-.96-1.43-1.9-2.83-2.93-4.36,2.43-.69,4.66-.23,6.4,1.75,1.21,1.37,2.07,1.17,3.17-.09,1.04-1.18,1.47-1.49,2.55.52,1.78,3.33,4.48,6.2,6.95,9.13,1.36,1.61,2.87,2.07,5.8,2.42.22-2.94-.47-6.19,2.06-8.56.16-.15.08-.66-.03-.96-.44-1.15-.69-2.5-1.47-3.35-.65-.71-1.93-.85-3.25-1.36-.18,1.57-.33,2.93-.48,4.27-.67-.05-1.11.05-1.3-.12-.98-.9-1.77-2.23-2.91-2.64-.48-.17-1.84.95-2.98.71-.55-.12-1.12-.39-1.52-.76-.12-.12.21-.88.49-1.22,1.68-2.03,2.74-2.7,5.43-3.99-2.61,0-5.22.03-7.83-.03-.38,0-.99-.35-1.07-.65-.1-.37.14-.96.43-1.26.42-.44.98-.89,1.56-1.02,1.22-.28,1.16-.99.7-1.76-.8-1.34-1.7-2.61-2.65-4.07,2.47-.58,4.61-.02,6.45,1.83,1.04,1.05,1.97,2.08,2.53-.46.2-.93,1.36-.86,1.92-.05,1.36,1.93,4.36,2.72,4.12,5.84,0,.11,1.63.34,2.5.52.02-.57.25-1.23.04-1.69-1.81-4.14-4.17-7.91-7.74-10.8-.81-.65-1.42-1.36-.42-2.42.91-.96,1.79-1.61,2.77-.19.86,1.25,2.98,1.19,3.14,3.11.53-.18,1.5-.31,1.53-.55.15-1.32.13-2.66.06-3.99-.13-2.57,1.41-3.68,3.94-4.68v12.15c2.22-.24,1.7-2.88,3.8-3.24,1.04-.18,2.1-.95,3.05-.21.74.58.19,3.28-.67,4-1.14.95-3.28.89-3.11,3.13-2.19,1.35-2.12,3.5-2,5.67.04.81,0,1.63.54,2.65.22-.5.36-1.06.66-1.5.55-.79,1.39-1.43,1.74-2.28.29-.71.12-1.65.05-2.47-.16-1.87,1.68-2.3,2.58-3.73.52.89,1.03,1.64,1.42,2.44.61,1.27,1.79.85,2.53.59.85-.3,1.52-1.77,2.21-1.74.94.04,1.26-1.71,2.37-.57,1.05,1.08,1.33,2.32.39,3.42-.86,1.01-1.88,1.89-2.81,2.84-1.82,1.86-1.8,1.85-.18,4.19.26.37.58,1.13.46,1.24-.42.36-1,.6-1.56.73-1.19.27-2.2-.15-3.1-.96-.15-.14-.61.06-1.11.13v3.66c1.53.3,3.21.69,4.56-1.06.46-.59.96-.94,1.4-.07.32.63.82,1.65.56,2-.77,1.03-1.86,1.82-2.83,2.7.77.77,1.4,1.33,1.94,1.96.86,1,1.58.86,2.45-.04.53-.55,1.3-1.24,1.95-1.22,2.66.05,4.55-1.25,6.27-3.04.66-.68,1.25-1.66,2.41-.65,1.07.93,1.55,2.53.77,3.4-.78.87-2.25,1.42-2.51,2.37-.18.66,1.23,1.7,1.79,2.65.13.22-.25.87-.55,1.17-.16.17-.64-.02-.97.04-2.57.42-4,1.97-4.57,4.99,1.25,0,2.46-.28,3.42.09.73.28,1.67,1.44,1.59,2.1-.13,1.07-1.09,2.02-2.46,1.79-.59-.1-1.1-.6-1.69-.71-1.4-.28-2.69-.6-4.1.51-2.3,1.81-2.42,1.67-5.62-1.19.18,1.62.3,2.76.47,4.25.21-.23.04.14-.16.15-1,.06-2.01-.07-2.99.07-.48.07-1.27.6-1.27.93,0,2.29-.59,2.92-2.48,1.16-.42-.39-1.16-.42-1.67-.75-.78-.51-1.28-1.94-2.39-1.31-1.35.76-2.13,2.04-1.12,3.93,4.35,0,8.82-.02,13.29,0,2.72.02,4.59-1.82,6.77-2.97.68-.36,1.35-.88,2.08-1,2.35-.4,2.88.29,2.22,2.69-.1.37-.31.71-.47,1.06.45.02,1.04.24,1.33.03,1.67-1.17,3.71-1.5,5.32-3.03,1.33-1.27,3.57-1.95,5.69-1.76.48.04,1.21.5,1.32.9.56,2.15,2.16,2.09,3.86,2.08,1.3-.01,2.63.01,3.9.24.99.17,1.09,1.27.47,2.1-1.5,2.01-3.88,1.98-5.93,2.58-1.21.35-2.6.06-4.09.6.52.23,1.23.32,1.53.72.88,1.17.22,2.7-1.1,2.75-.5.02-1,0-1.5,0-1.58.03-1.97-2.75-3.6-1.85-1.14.63-.12,2.85-1.8,3.72-.94.49-1.36,1.75-2.85.62-1.08-.82-2.61-1.32-3.12,1.14-.21.99-1.43,2.23-3.08.69-.69-.64-2.47-1.21-2.74,1.14-.1.83-1.6.88-1.85-.03-.9-3.31-3.26-3.62-6.08-3.45-1.95.12-3.91.02-7.02.02,2.28,1.42,3.55,2.2,4.82,3,2.11,1.33,5.22.39,6.76,3,1.56-.3,3.12.46,4.76-.63,1.19-.79,2.65-1.49,4.41-1.5,1.47-.01,2.92-1.15,3.3,1.3.2,1.3,1.28.89,1.95.78.89-.14,1.89-.45,2.55-1.02,1.77-1.52,2.91-1.77,3.87.84.49,1.32,2.16,1.88,3.28.94,1.1-.93,2.16-.73,3.24-.67,1.57.09,2.12,1.35,1.59,3-.24.74-.16,1.63-.52,2.28-.37.66-1.55,1.65-1.62,1.6-2.27-1.9-3.36,1.73-5.34,1.14-.19-.06-.86.75-.95,1.22-.13.73-.26,1.5,1.01,1.77,1.64.35,3.18,1.13,5.41,1.97-1.39,1.39-2.51,2.26-3.26,3.37-.36.53-.32,1.74.06,2.26.65.88,1.41.21,2-.42.45-.49,1.05-.88,1.39-1.43,1.15-1.84,2.87-2.02,5.12-1.7.13,1.21.27,2.57.43,4.05,2.24-.71,4.14-1.38,6.08-1.9.51-.14,1.13.14,1.7.23-.23.85.66,2.03-.76,2.51-.88.3-1.75.61-2.63.89-.44.14-1.19.11-1.31.38-1.04,2.4-2.81,3.17-5.33,2.79-.45-.07-1.06.62-1.54,1.03-2.23,1.9-4.2,2.51-7.54,2.31-.35-.02-.81.07-1.04.29-1.21,1.14-2.39,2.32-3.55,3.52-1.46,1.51-2.83,3.1-5.18,3.22-.37.02-.93.63-.99,1.02-.04.3.51.83.91,1.02,1.1.54,2.23,1.22,3.41,1.38,2.04.27,4.04.47,6.08,1,2.47.65,4.96-.47,7.09-1.98,1.43-1.01,2.76-.76,3.37.74.29.72.21,2.15.48,2.2,1.07.19,2.51.34,3.26-.22.97-.73,1.86-.43,2.78-.62,1.28-.27,1.67.85,2.42,1.43-.56.53-1.03,1.35-1.69,1.52-1.26.33-1.83,1-2.3,2.17-.31.77-1.23,1.73-1.95,1.8-1.37.13-1.84.32-2.08,1.89-.31,2.08-1.78,2.9-3.47,1.98-1.23-.68-1.92-1.09-2.82.13-1,1.36-2.01,1.52-3.17.14-.13-.15-.85.21-1.3.34.16.54.19,1.46.51,1.57,2.18.78,4.39,1.62,6.66,1.96,1.07.16,2.36-.63,3.44-1.2.96-.5,1.37-1.68,2.79-1.78,1.61-.11,1.15,1.52,1.73,1.72,1.83.64,3.76.81,5.48-.61.17-.14,1.05.19,1.19.49.15.32-.06,1.17-.31,1.28-2.18.87-3.98,2.15-5.17,4.23-.72,1.26-1.98.89-3.09.98-.78.06-1.74.05-2.27.49-.67.56-.87,1.67-1.51,2.31-.33.33-.84-1.3-1.76-.22-.57.67-1.7.84-2.34,1.48-1.55,1.52-2.84,1.26-4.15-.24-.55-.62-1.11-1.27-1.79-1.73-.27-.19-1.07-.05-1.29.22-.48.58-.74,1.35-1.1,2.03-.37.68-1.24,1.55-1.05,1.98.43.99,1.22,1.89,2.66,1.7.95-.12,2.2-.27,2.88.21,3.15,2.23,6.75,2.27,10.32,3.01,3.45.72,6.78.4,10.14.73,1.74.17,2.63-.7,2.94-2.45.26-1.45,1.55-2.04,2.64-1.33,1.33.87,2.55,1.88,3.84,2.81,1.97,1.41,3.07,1.49,5.08-.2,1.15-.96,1.66-.51,2.85-.03,2.88,1.15,5.85,2.39,9.08,2.18.5-.03,1.08-.43,1.41-.84.13-.15-.31-.81-.54-1.21-.97-1.7-2.21-.04-3.08-.28-.94-.25-1.4-2.25-2.33-2.51-1.34-.36-2.75-.38-4.09-1.05-.49-.24-1.48.32-2.14.68-1.57.88-2.29-.55-2.65-1.33-.28-.62-1-2.4,1.18-2.5.83-.04,1.63-.82,2.74-1.42-1.32-1.06-2.01-2.72-4.2-2.59-.58.04-1.21-.93-1.82-1.44.47-.47.91-1.31,1.42-1.35,2.53-.23,1.07-1.1.34-1.81-.2-.2-.56-.25-.86-.31-1.6-.3-.66-1.57-.92-2.38.87-.17,2.27-.77,2.53-.44,1.74,2.15,4.34,2.5,6.63,3.44.71.29,1.61.47,2.33.3.55-.13.96-.87,1.43-1.35-.94-.83-.62-2.09-1.03-3-.54-1.22,2.02-1.67.4-2.88-.36-.27-.52-1.48-.24-1.8,2.34-2.73-.34-3.64-1.77-4.87-1.47-1.26-1.69-1.93-.59-3.23.75-.88,1.46-1.17,2.44-.21.91.89,1.99,1.61,2.99,2.41.74-.95,1.41-1.98,2.25-2.83.95-.95.71-1.59-.1-2.47-.38-.41-1.83-.71-.71-1.7.55-.49,1.35-.87,2.08-.96,2.06-.26,2.07,1.62,2.98,3.3.72-2.55.16-4.78.41-6.93.11-.91.34-1.88.79-2.66.63-1.08,1.54-.93,2.2.01,1.52,2.16.69,4.69,1.18,7.44,1.58-1.16,2.83-2.27,4.27-3.06.57-.31,1.53.08,2.32.16-.21.69-.21,1.62-.68,2.01-1.03.85-2.73,1.07-2.16,3.09.07.26-.53.94-.92,1.05-3.4.93-3.22,3.51-2.93,6.16q2.43-1.65,2.91-2.97c.99-2.73.98-2.72,4.05-1.1.26.14.75.03,1.04-.13.95-.54,1.99-1.02,2.75-1.78,1.11-1.12,1.36.17,1.77.56.71.68.62,1.27-.36,1.87-1.4.85-1.32.94.11,1.97.53.38,1.02.83,1.44,1.32.18.21.29.7.17.88-.23.33-.65.74-1,.75-1.95.07-3.91.03-6.84.03,2.18.95,3.39,1.44,4.57,2.02.48.23,1.08.56,1.26,1,.48,1.13,1.05,2.09,2.41,1.96,1.4-.12,2.91.56,4.14-.92,1-1.22,3.08-1.36,2.62-3.92-.29-1.65,1.81-2.8,3.48-1.91,2,1.07,3.62,1.23,5.15-.51,1.09-1.23,2.75-1.06,3.65-.6,2.03,1.03,3.66,2.14,4.86-.85.07-.18.73-.35.84-.24,2.04,2.01,5.16-.02,7.2,1.97,1.6,1.56,3,1.32,4.59-.27.65-.65,2.26-.23,3.12-.79,1.62-1.06,4.03-1.03,4.9-3.01.49-1.11-2.89-1.58-5.99-.27-1.14.48-2.64-.26-3.49,1.31-.89,1.63-2.1,1.22-3.07-.1-.63-.87-1.11-.21-1.79-.12-1.24.15-3.33,1.57-3.83-1.32-.06-.32-2.08-.36-3.19-.41-2.78-.14-2.77-.11-3.59-3.32-.07-.26-.38-.47-.75-.89-1.16.66-2.33,1.41-3.58,2.01-1.06.51-2.8-.78-2.59-1.96.06-.36.97-.51,1.36-.88.3-.29.59-.83.52-1.2-.05-.31-.62-.72-.97-.74-1.5-.08-3.01.1-4.49-.07-1.7-.2-3.42-.55-5.02-1.14-.41-.15-.39-1.44-.68-2.68,1.94-.05,3.72.09,5.42-.19,1.71-.29,3.84-.24,3.86-3.03.01-1.6,1.74-1.12,2.28-.85,3.19,1.58,6.24,3.44,9.39,5.11.89.47,1.93.66,3.01,1.02.16-1.91-2.95-2.43-1.36-3.8.86-.75,3.65-.65,4.47.17,3.66,3.65,8.04,3.71,12.64,3.45,1.99-.11,4-.02,6-.02.12-.11.33-.22.34-.34.09-1.11.14-2.23.24-3.88-1.49.54-2.84.67-3.61,1.4-1.03.98-2.25,1.15-3.16.75-1.99-.89-3.7-2.42-6.09-2.21-.13-2.33-1.87-1.62-3.2-1.72-.29-.02-.81-.21-.82-.34-.1-2.56-2.02-1.52-3.27-1.62-1.49-.12-3-.08-4.5-.01-1.05.05-1.5-.31-1.44-1.39.05-.84-.05-1.5,1.18-1.68,1.34-.19,2.62-.82,4.32-1.4-1.34-1.53-1.01-3.84-3.92-3.67-1.32.08-1.31-1.61-.04-2.98.31-.33.14-1.1.2-1.67-1.78.17-1.62-1.6-2.4-2.43-.78-.82-.2-1.44.42-2.06.62-.62,1.17-1.13,2.08-.44,1.13.86,2.32,1.65,3.47,2.49,2.55,1.86,5.34,2.72,8.47,1.92.42-.11.72-.67,1.25-1.21-.88-.88-1.9-1.67-2.6-2.68-.4-.59-.61-1.68-.33-2.28.42-.9,1.26-.64,2.01,0,.44.38,1.28.35,1.65.76,1.32,1.44,1.43-.5,2.15-.69-.18-.54-.21-1.37-.56-1.54-.54-.26-1.31-.01-1.96-.08-.78-.09-1.54-.29-2.31-.44.2-.9.11-2.12.67-2.64,1.33-1.24,1.38-1.83-.5-2.18-.13-2.06-.88-3.55-3.1-4.2-.74-.22-1.72-1.12-.82-2.34.78-1.05,1.84-1.5,3-1.12.71.24,1.22,1.06,1.84,1.58.71.59,1.24,1.9,2.36,1.22.45-.27.18-1.56.54-2.21.37-.66,1.46-1.67,1.65-1.56,1.19.73,2.32,1.63,3.25,2.67.33.37.15,1.3.04,1.95-.41,2.4.64,4.01,2.79,5.24.82-4.02-.06-7.33-3.27-9.99-1.4-1.17-2.58-2.6-3.92-3.86-1.01-.95-.57-1.62.21-2.44.91-.95,1.53-.79,2.46.04,1.67,1.5,2.84,3.64,5.54,4.61.46-3.84,0-7.45.28-11,3.22-.12,3.8.27,3.92,2.61,0,.17-.03.34,0,.5.33,1.51-.83,3.25.72,4.57,1.25-.99,2.57-1.92,3.74-3.01.94-.86,1.68-1.63,2.8-.25,1.11,1.37,1.02,2.11-.49,3.27-.63.48-1.54.98-1.7,1.62-.44,1.79-1.65,2.66-3.14,3.39-.36.18-.91.59-.89.85.21,2.05-.75,3.66-1.67,5.34-.14.26.39.98.75,1.35.13.14.86,0,1-.22,1.33-2.1,2.6-4.25,3.88-6.39.69-1.15,2.52-1.45,2.89-.27.58,1.83,1.28,1.89,2.23.64,1.54-2.02,3.56-1.2,5.45-1.18.15,0,.48.89.36,1.25-.1.3-.85.33-1.11.64-.65.79-1.2,1.68-1.78,2.53.8.48,1.58,1.01,2.41,1.43.4.21.96.14,1.35.36.42.24,1.08.8,1.01,1.01-.18.54-.62,1.13-1.12,1.39-.53.27-1.25.23-1.89.25-1.48.03-2.96,0-5.28,0,.83.83,1.19,1.2,1.55,1.56.47.47.93.95,1.42,1.41.74.7.71,1.35,0,2.07-.58.59-1.01,1.21-1.83.2-.18-.22-1.17.01-1.63.29-1.21.74-2.33,1.62-3.49,2.44-.47-1.12-.78-2.37-1.49-3.32-.36-.49-1.44-.64-2.18-.61-1.31.05-.83,1.19-.84,1.9-.04,3.96-.02,7.92-.02,12.24,3.4-.75,6.19-1.47,8.05-4.43,1.49-2.38,4.02-4.04,4.14-7.34.05-1.34,2.39-1.88,3.65-1.04.77.52,1.4,1.25,2.8,2.53.7-1.12,1.12-2.06,1.78-2.78,1.42-1.57,2.77-3.39,5.26-1.21.63.55,2.15.08,3.59.08-.75-2.69-2.39-4.08-4.24-4.93-1.89-.87-2.41-1.96-1.68-4.15h6.43c-1.71-1.56-2.8-2.55-3.89-3.53-.79-.71-1.31-1.35-.38-2.44.9-1.06,1.95-1.13,3.08-.81.42.12.73.65,1.07,1.03,1.9,2.12,3.14,2.45,5.84,1.9,1.13-.23,2.34-.05,3.45-.06.1.64.08,1.38.44,1.83,1.6,1.96,4.37,3.22,3.65,6.5-.04.18.34.61.58.65,2.18.38,2.8,3.05,4.52,3.48,2.05.51,3.47,2.03,5.53,2.78.46-4.56.7-8.89,1.4-13.14.5-3.06-2.27-1.48-3.08-2.57-.13-.18-.46-.21-.69-.31-.1.62-.12,1.28-.33,1.86-.13.36-.55.9-.83.89-1.25-.02-2.7.53-3.59-.91-.6-.97-1.5-1.11-2.56-1.06-1.66.07-3.32.02-5.05.02.93-3.38,3.99-3.89,6.59-5.01.85-.37,1.68-.8,3.57-1.7-3.61-.2-6.03-.94-8.44.52-1.49.9-2.64-.6-3.99-.86-.28-.05-.64-.73-.61-1.08.03-.32.56-.83.86-.83,1.03,0,1.81-.68,2.62-.89,1.11-.29,2.33-1.19,2.24-1.53-.28-1.02-1.13-1.78-2.53-1.67-1.3.1-2.1-.8-2.22-2.08-.05-.59.18-1.25.46-1.78.07-.13.85.08,1.29.19,2.13.54,3.98,1.75,5.77,2.89,1.39.89,1.02.48,1.57-.64,1.02-2.12,2.09-2.06,3.69-.19.7.82,1.19,1.83,1.78,2.75.86,1.33,1.72,2.65,3.11,4.79.14-2.14.11-3.36.31-4.55.43-2.46-.76-4.1-2.65-5.32-2.02-1.31-2.84-3.89-5.35-4.74-.74-.25-.52-3.56.21-3.96,1.06-.59,2.14-.56,3.05.46.66.74,1.32,1.54,2.13,2.09.85.58.2,2.85,1.95,2.01.57-.27.73-2.06.58-3.08-.49-3.31.77-5.74,3.38-7.6.23-.17.71-.29.89-.16.33.23.74.65.75,1,.06,2.66.03,5.32.03,7.98v4.75c2.09.66,2.52-1.02,3.45-1.76,1.15-.91,2.11-2.09,3.29-2.95.4-.29,1.44-.18,1.84.16.37.31.59,1.34.35,1.75-.83,1.42-.86,3.49-2.89,4.03-1.22.33-1.47,1.71-2.14,2.21-3.97,2.96-2.79,6.88-2.89,11.21,2.05-1.84,3.21-3.52,2.94-5.7-.24-1.96.8-3.38,1.71-4.79,1-1.54,2.11-1.3,3.34.61.87,1.36,1.71.84,3.01.61,1.91-.34,3.74-2.22,6.15-.56-1.32,2.05-.86,5.01-4.18,6.11-1.72.57-1.32,1.94.45,3.35.61.49,2.45,1.05.68,2.46-.16.12.37,1.07.54,1.65.82,2.79.69,3.06-2,4.86-.4.27-.78.6-1.09.96-.74.86-.94,1.36.44,2.1,2.89,1.54,5.43,1.08,7.99-.55,1.32-.84,2.66-1.64,3.94-2.53,1.56-1.09,3.32-1.03,4.99-1.06-.09,1.7-.09,3.32-.09,4.9-1.39.15-2.6.27-4.78.51,1.72.85,2.56,1.59,3.4,1.59,1.44.01,1.59.64,1.59,1.8,0,1.17-.59,1.43-1.54,1.26-1.46-.26-2.48.31-3.43,1.4-.95,1.09-2.14,1.97-3.37,3.07,1.88.6,3.32,1.26,4.83,1.48,1.56.23,2.58,1.07,2.37,2.41-.14.95-1.2,1.9-2.64,1.67-.81-.13-1.68.1-2.49-.05-2.69-.5-3.53-.44-5.23,1.04-.96.84-1.63,1.55-2.83.27-.59-.63-1.58-.95-2.45-1.24-.35-.12-.85.21-1.14.3.73,1.07,1.41,2.06,2.5,3.66-1.37,0-1.98,0-2.6,0-1.81-.02-3.69-.23-4.09,2.33-.04.27-1.07.65-1.51.52-1.18-.32-2.39-.74-3.39-1.4-.98-.65-1.72-1.65-3.03-2.95,0,1.63-.03,2.44,0,3.25.03.76.13,1.52.17,2.05,2.36.66,4.67-.77,6.43,1.2,2.2-.41,4.38.14,6.73-.57,2.38-.72,4.11-3.33,7.02-2.48.25.07.77-.54,1.08-.9,1.23-1.44,2.65-1.96,4.61-2.26,1.48-.22,3.03-.65,4.6-.84.71-.09,1.73-.58,1.95-1.14.91-2.34,1.85-2.15,3.88-.97,3.13,1.81,6.6,3.17,10.42,1.8-.34-1.45-.68-2.89-1.01-4.3,2.52-.75,4.61-.43,6.35.74,1.2.81,2.33.96,3.62.94,2.24-.03,4.38-.26,6.61-.85,2.24-.58,4.5-1.45,7.04-1.27,2.61.19,4.16-2.58,6.52-3.41.96-.34,1.96-.58,3.54-1.05-1.38-.65-2.33-1.5-3.04-1.34-1.62.37-3.13,1.23-4.68,1.91-.7.31-1.45,1.03-2.07.92-1.46-.25-.41-1.66-.83-2.42-.31-.56-.91-.96-1.4-1.45-1.06.98-2.03,2.11-3.23,2.9-.83.54-2.37,1.17-2.91.79-1.5-1.06-2.37-.54-3.89.05-3.23,1.25-6.99-.05-7.34-2.65-.32-2.34-1.32-2.29-2.8-2.11-1.52.18-2.06-.41-2.78-1.76-.8-1.51-2.25-2.84-4.47-2.31-.91.22-1.92.04-3.06.04-.07-1.47-.12-2.72-.17-3.9-2.54-.35-4.93.55-6.99-1.17.2-2.88.2-2.96,2.38-2.9,1.59.05,3.18.36,4.77.52.3.03.72-.04.93-.23,1.87-1.74,3.4-1.83,5.55-.28,1.98,1.42,3.08.95,3.45-1.54.1-.65-.11-1.37.08-1.98.09-.27,1.08-.6,1.2-.48,2.33,2.5,5.99,2.83,8.37,5.15,1,.98,2.22,1.25,3.02.52,1.08-.98,2.27-.31,3.22-.75,2.62-1.22,5.28-1.77,8.16-2.18,2.4-.34,4.53-2.61,6.73-4.1.23-.15.16-.88.06-1.3-.04-.18-.52-.32-.81-.35-.49-.06-1.3-.21-1.45.01-1.7,2.63-4.32,2.09-6.71,1.92-1.93-.14-3.31.88-4.87,1.58-1.16.52-2.81-.09-2.94-1.24-.15-1.42-.04-2.88-.04-5.31-1.73,1.51-2.88,2.18-3.58,3.17-1.37,1.96-3.25,2.01-5.26,1.84-1.55-.13-1.39-.9-.74-1.95.29-.47.29-1.12.43-1.69-.62-.12-1.32-.47-1.84-.3-1.19.39-2.17,1.14-3.61,1.01-1.99-.18-1.27-.76-.42-1.54-.78-.51-1.54-1.39-2.33-1.43-1.29-.06-1.48-.6-1.84-1.66-.26-.75-1.05-1.68-2.33-1.46-.81.14-1.66.06-2.49.02-2.39-.11-2.73-.61-2.7-3.99,1.79,0,3.61.09,5.4-.04.9-.06,2.01-.27,2.61-.85,1.88-1.8,3.74-1.22,5.82-.55,2.39.77,4.74,1.98,7.44,1.32.66-1.29,1.29-2.71,2.11-4.01.57-.91,1.31-1.23,2.41-.36,1.82,1.44,1.89,1.34,3.25-1.45,2.83,1.42,5.81,2.62,8.46,4.32,2.88,1.84,5.21-.51,7.8-.55.04,0,.3-1.41.06-1.57-.72-.48-2.26-.31-1.58-1.74.46-.97,1.4-1.69,2.82-1.57,1.98.17,4,.04,5.99.04.5,0,1.07.15,1.48-.05.32-.16.52-.72.6-1.14.04-.23-.24-.7-.45-.76-.47-.12-.99-.1-1.48-.05-1.34.15-2.26-.05-2.09-1.78.04-.37-.65-.82-1-1.23-.32.28-.83.52-.91.85-.7,2.9-3.57,2.82-5.81,4.09-.07-1.2-.33-2.44-.19-3.63.23-1.9-1.93-.88-2.23-2.01-.6.55-1.67,1.05-1.71,1.64-.1,1.29-.4,1.8-1.7,2.36-.81.35-2.88.25-2.48,2.26-.9.04-1.91.35-2.67.05-.58-.23-.8-1.28-1.26-1.9-.85-1.16-1.28-2.05-3.39-1.07-3.35,1.55-6.76-.53-10-1.7-.95-.34-.8-1.25-.1-1.96,1.5-1.52,4.33-1.68,4.61-4.53.02-.21,1.12-.43,1.73-.45,1.83-.06,3.69.14,5.48-.12.54-.08,2.49-.77.86-2.31-.19-.18.21-1.5.42-1.52,1.57-.16,2.82-2.14,4.83-.34,1.19,1.06,2.95.05,3.57-1.37.47-1.08-.27-2.32-1.43-2.35-1.46-.03-2.93,0-4.6,0,.35-1.36-.86-2.66,1.52-3.14,1.87-.38,3.69-.78,5.61-.93.66-.05,1.26-.92,1.89-1.42-.23-.24-.41-.58-.69-.69-.66-.25-1.48-.71-2.03-.51-1.29.45-2.47,1.24-3.85,1.98-.19-.72-.4-1.17-.41-1.61-.01-1.83-.87-2.71-2.72-2.69-.98.01-1.98.01-2.94-.16-.89-.16-1.2-1.45-.61-2.1,1.02-1.11,2.04-2.12,3.79-1.76.75.15,1.56.03,2.5.03-.13-3.28-2.87-3.63-4.53-4.81-.8-.56-1.47-.61-1.58-1.86-.15-1.7,1.24-1.3,1.92-1.6,1.26-.56,2.68-.76,4.13-1.14-1.02-1.08-2.16-2.04-2.91-3.23-.31-.49.01-1.64.42-2.22.23-.33,1.79-.22,1.81-.12.55,2.76,5,1.43,4.94,4.73.57-.07,1.3.06,1.66-.25.42-.35.42-1.16.77-1.64.65-.9,1.5-1.36,2.39-.27,1.59,1.95,4.47,3.07,3.99,6.37-.07.47.52,1.18.98,1.54,2.12,1.63,3.16,4.71,6.58,4.72.71,0,1.39,1.34,2.13,2.01,1.21,1.09,3.15.55,3.21-1.03.15-4.16.14-8.33-.05-12.49-.03-.6-1.28-1.37-2.1-1.65-.96-.32-1.47.05-1.95,1.35-.72,1.93-1.68,1.9-3.77.56-.8-.51-1.3-1.63-2.13-1.89-1.06-.33-2.32,0-3.47-.12-.52-.05-.99-.5-1.49-.77.37-.4.7-1.09,1.1-1.14,1.35-.16.52-2.63,2.6-2.15,1.07.24,2.41-.47,3.54-.95.38-.16.48-.97.71-1.49-.44-.15-1.04-.57-1.28-.42-3.39,2.15-7,.3-10.38,1.08-.47-1.99-.72-3.47,1.73-3.12.33.05.73.13.99-.02,1.02-.58,2.69-1.11,2.85-1.9.32-1.6-1.91-1.08-2.66-2.05-.12-.16-.64-.04-.97-.02-1.71.08-1.27-1.22-1.19-2.07.16-1.62,1.68-1.1,2.29-.86,1.71.68,3.27,1.74,4.9,2.64.82.45,1.63.58,1.75-.63.16-1.68,1.46-1.17,2.2-1.01.7.15,1.35.88,1.85,1.49.68.85,1.19,1.83,1.79,2.75.59.9,1.29,2.59,1.78,2.54,1.8-.21.91,1.88,2.54,2.07-.4-2.43-.56-4.79-1.23-6.98-.35-1.14-1.44-2.23-2.48-2.93-2.13-1.42-2.17-4.7-5.19-5.38-1.14-.26-1.73-3.09-1.03-3.25,1.17-.27,2.58-.33,3.65.1,1,.4,1.66,1.59,2.52,2.37.56.51,1.22.92,2.42,1.81.08-2.21.03-3.8.24-5.36.16-1.22.4-2.54,1.04-3.54.5-.78,1.67-1.12,2.54-1.66.46.81,1.28,1.6,1.33,2.43.16,2.99.03,6,.1,8.99.01.5.49,1.37.79,1.39.71.04,2.03-.24,2.08-.55.26-1.7,1.66-2.4,2.71-3.33.8-.71,2.3.24,2.39,1.33.13,1.57-.19,2.72-1.73,3.68-3.9,2.42-6.17,7.97-5.24,12.32.06.28.72.51,1.14.59.23.04.71-.23.77-.45.4-1.51.9-3.03,1-4.57.11-1.71.95-3,1.88-4.23.96-1.26,2.12-.96,3.17.58.71,1.03,1.45,2.36,2.67.5,1.18-1.79,3.65.21,4.85-1.71.17-.28,1.64,1.92,1.23,2.62-.63,1.08-1.32,2.15-2.12,3.11-.84,1-1.83,1.87-2.98,3.02,1.16,1.31,2.22,2.51,3.3,3.73-2.01,2.84-5.23.61-7.71,1.68v4.32c1.86-1.19,3.33-2.05,4.7-3.04,1.08-.79,2.01-.82,3.08-.04,1.23.9,1.38,1.86.2,2.76-1.38,1.05-2.86,1.99-4.63,3.2,1.39.84,2.41,1.55,3.51,2.09.48.23,1.31.39,1.66.13,2.66-1.94,6.47-1.64,8.66-4.52.42-.56,1.3-.87,2.03-1.06,1.14-.3,2.46-.32,2.98.93.26.62,0,1.81-.47,2.29-1.18,1.19-2.62,2.11-3.95,3.13,1.25.56,2.44.96,3.47,1.61.33.21.49,1.41.27,1.58-.47.37-.65,1.83-1.7.86-1.06-.98-2.17-.49-2.35.4-.54,2.66-3.26,2.85-4.72,4.66,2.48.49,4.91.88,7.28,1.49.64.16,1.1,1.01,1.64,1.55-.47.46-.94,1.31-1.42,1.32-1.59.03-2.86,2.34-4.86.39-.81-.8-2.77-.84-3.97.53-1.41,1.61-3,1.64-4.78.57-.51-.3-1.21-.33-1.82-.39-.28-.03-.58.19-1.19.41.54.26.92.34,1.17.58.59.56,1.13,1.18,1.68,1.78-.83.4-1.64.87-2.51,1.18-.44.16-1.19.24-1.46,0-1.74-1.62-2.58-1.11-3.26.99-.45,1.37-1.26.4-2.14.13-1.37-.42-3.33.59-3.68-1.89-.02-.11-.79-.28-.85-.18-.65,1-1.51,1.99-1.69,3.09-.08.51,1.17,1.78,1.85,1.8,4.66.16,9.33.1,13.99.06.41,0,.92-.34,1.2-.67,2.15-2.53,5.52-1.99,8.16-3.27.35-.17,1.27,0,1.33.2.15.51.03,1.13-.1,1.68-.06.28-.45.49-.53.77-.07.28-.05.79.13.9.38.24,1.11.53,1.29.37,2.25-2.12,5.21-2.7,7.91-3.88,1.28-.56,2.37-1.56,3.48-2.44,1.33-1.06,2.77-.92,4.05-.19,1.43.81,1.58,1.98-.53,3.55,3.09,0,5.53-.06,7.97.02,1.81.05,2.88,1.14,2.65,2.68-.21,1.38-.94,2.32-2.56,2.31-2.24-.02-4.44-.19-6.64.87-.81.39-2.26-.54-4.58-1.19,1.49,1.49,2.33,2.15,2.92,2.98.4.55.46,1.35.67,2.03-.92.27-1.88.82-2.76.73-.85-.09-1.58-.94-2.43-1.31-1.2-.54-2.07.01-2.6,1.52-1.03,2.92-2.39,3.58-5.28,2.58-1.17-.4-2.31-.9-3.5-1.18-.59-.14-1.74-.07-1.83.18-.47,1.37,1.17.35,1.35,1.04.16.61.39,1.33.2,1.87-.14.4-.88.78-1.38.83-.78.07-1.81.11-2.32-.32-1.34-1.15-1.09-.09-1.25.68-.12.58-.39,1.12-.6,1.68-.56-.26-1.27-.39-1.64-.82-.71-.82-1.12-1.89-1.83-2.72-.62-.73-1.24-2.05-2.52-.52-.27.32-1.47.3-1.9-.02-2.42-1.8-4.95-.6-7.48-.6,2.29,1.37,3.78,3.78,6.93,3.82,1.63.02,3.57,1.47,4.84,2.48,1.73,1.38,2.72.54,3.97.06,1.87-.72,3.62-1.74,5.49-2.42,2.35-.85,3.29-.61,4.67,1.78.88,1.54,2.23,1.22,2.71.64,1.17-1.41,2.93-1.27,4.15-2.14,1.24-.88,1.51.14,1.79.57,1.97,2.98,1.92,2.93,4.58,2.26,1.23-.31,2.6-.52,3.83-.3.76.13,1.64,1.05,1.94,1.81.26.68.51,1.73-1.04,2.22-1.21.38-1.7,2.44-3.64,1.94-.31-.08-1.01.55-1.2,1-.57,1.35-1.62,1.58-2.9,2.08-2.05.8-3.74,2.47-6.23,1.89-.37-.09-1.83,2.57-1.55,2.77.49.34.5,1.34,1.79.72,1.78-.85,3.7-1.87,5.87-1.51.62.1,1.43.03,1.81.4.99.96,2.67,1.68,1.26,3.72-.54.79-.09,2.26-.09,4,2.08-2.17,4.86-2.11,6.9-3.6.87-.63,1.09-.08,1.42.34.21.25.31.71.25,1.04-.29,1.84.43,2.8,1.3,2.01,2.03-1.85,4.91.17,6.81-1.85.29-.31,1.48.23,2.25.37-.19.9-.1,2.07-.64,2.65-1.06,1.14-2.44,1.99-4.17,1.92-.96-.04-1.93,0-2.89,0,.34,1.37.61,2.49.98,4-1.52,0-2.64,0-3.76,0-1.62,0-3.25-.24-4.46,1.4-.36.48-1.45.54-2.21.57-1.08.04-2.06,0-1.79,1.53-.57.1-1.28.45-1.68.23-.7-.39-1.21-1.12-1.78-1.69-3.36,2.85-5.87,6.62-9.84,8.8-.69.38-1.24,1.11-1.65,1.8-.16.26.16,1.18.4,1.24,3.03.76,6.06,1.55,9.14,2.07,1.62.27,3.34-.1,4.99.09,1.53.17,2.57-.36,3.39-1.52.97-1.38,2.32-1.79,3.86-1.48.45.09.98.63,1.15,1.09,1.16,3.09,1.9,3.71,4.84,2.43,2.17-.95,3.69-.84,5.1.84-1.22,2.5-4.39,3.02-5.53,5.65-.2.46-1.02.9-1.57.91-1.79.03-2.61.85-2.92,2.58-.1.54-.81,1.21-1.37,1.37-1.1.32-2.28.25-3.04-.89-.47.8-.77,1.85-1.46,2.35-.84.6-2.01.73-3.18,1.11.74.56,1.44,1.52,2,1.45,2.8-.36,5.89,1.32,8.39-1.52,1.04-1.18,3.48-.48,4.74.94.97,1.09,1.9.86,2.96.23,1.52-.9,2.99-1.13,4.42.26.9.88.88,1.54-.23,2.17-.54.31-1.44,1.01-1.54.91-1.72-1.74-2.44,0-2.5,1.01-.14,2.34-1.17,3.03-3.38,3.15-1.56.09-3.66-1.2-4.68,1.02-.8,1.75-2.69.94-3.98,2.09-3.43,3.04-6.92,2.24-9.82-1.47-.43-.55-.78-1.61-1.21-1.64-1.61-.1-3.24.13-4.85.29-.09,0-.21.6-.14.89.06.27.33.69.54.71.83.08,1.67-.02,2.49.05.62.05,1.75.25,1.75.38,0,.9-.1,1.87-.45,2.69-.36.82-1.05,1.5-1.88,2.63,4.13.33,7.35,1.79,10.45,3.65.76.46,1.81.59,2.73.61,3.33.07,6.68.21,9.99-.03,2.47-.18,4.03.83,5.36,2.67,1.27,1.75,1.28,1.66,3.57,1.42,1.48-.15,3.02-.18,4.49.04.69.1,1.61.81,1.8,1.43.16.53-.38,1.61-.93,1.98-1.43.96-2.97,1.7-4.86,1.59-1-.06-2.04.55-3.49,1.84.56.29,1.2.48,1.66.87,2.11,1.78,3.55,1.87,4.63-.47.77-1.67,1.12-1.76,2.27-.66,2.4,2.31,4.99,3.23,8.22,1.59.55-.28,1.62.63,2.48.72,1.29.14,2.6.04,3.89.04-.02-3.45-.35-3.91-2.77-3.99-1.33-.04-2.67.04-4-.03-.72-.04-1.92.49-1.91-.79,0-.66.7-1.39,1.24-1.94.28-.29,1.1-.13,1.27-.41.3-.51.49-1.25.35-1.8-.1-.42-.74-.81-1.22-1-.44-.17-.99-.07-1.49-.03-1.21.09-1.35-.67-1.22-1.57.12-.81.73-1.8.45-2.35-.59-1.15-.99-2.49.12-2.95.99-.41,2.52-.59,3.68.57.88.87,2.4,1.22,3.02,2.2,1.49,2.35,2.85.18,4.16,0,.86-.11.83-1.27,0-1.87-.35-.26-.99-.15-1.31-.43-.86-.74-1.93-1.53-.51-2.76.21-.18.21-.58.37-.84.65-1.07,1.92-2.18,1.81-3.15-.09-.83-1.82-1.42-2.68-2.27-.53-.52-.91-1.29-1.1-2.02-.23-.86-.04-1.62,1.18-1.57,3,.11,4.49-.21,6.55-1.29-.59-1.04-1.3-2.05-1.69-3.17-.1-.29.82-.93,1.28-1.41,1.31,1.07,2.61,2.13,4.64,3.79,0-3.38-.03-5.82.05-8.27,0-.22.7-.52,1.11-.6.23-.05.53.27.8.43-1.02,1.39,1.98,2.73.1,4.23-.1.08.65,1.32,1.14,1.9.08.1,1.01-.31,1.33-.68.66-.73,1.18-1.58,1.92-2.62,3.33,3.18,6.55,3.56,10.08,1.75.66-.34,1.64-.05,2.47-.1,0,1.2-.25,2.43.06,3.48.43,1.44,1.24,2.77,2.01,4.08.18.3,1.09.57,1.2.45.36-.41.83-1.13.68-1.51-.87-2.29-.9-5.06-3.95-6.49.36-1.32-.6-2.03-1.39-2.88-.64-.68-1.23-1.48-1.55-2.34-.17-.45.23-1.18.54-1.69.06-.1.96.09,1.26.37,1.23,1.12,2.38,2.33,3.64,3.59,3.28-2.82.25-6.92,1.97-10.04q3.41,1.92,3.89,6.92c1.74.57,2.03-1.38,3.14-1.78.66-.24,1.84-.14,2.25.31.39.43.35,1.63.03,2.24-.45.84-1.27,1.55-2.07,2.13-2.31,1.68-3.04,4.42-4.54,6.63-.2.29.05.88.09,1.33.57-.06,1.38.1,1.66-.22.94-1.05,1.68-2.28,2.52-3.43.63-.86,1.66-1.66,2.5-1.03,1.97,1.49,3.41.27,5.04-.48.69-.32,1.49-.45,2.26-.55.24-.03.74.3.74.47,0,.45-.06,1.16-.34,1.31-1.08.58-2.25.99-3.88,1.66,1.23.75,2.21,1.3,3.14,1.93.41.27,1.08.88,1.01,1.01-.28.55-.73,1.22-1.25,1.38-.71.22-1.82.34-2.28-.06-1.66-1.42-3.42-.33-5.15-.4,1.92,1.04,3.84,2.05,5.74,3.12.99.55,1.22,1.49,1.07,2.55-2.08.06-4.17-.28-6.12.94-.45.28-1.57.47-1.93-.79-.22-.78-.91-1.44-1.52-2.34-1.48,2.37-3.43,3.98-1.58,7.05.95,1.58-.12,4.12.44,6.27,6.04-1.61,7.78-6.94,10.72-11.13ZM1085.8,85.43c.09-.61.23-.97.18-1.31-.2-1.53.55-2.48,1.87-2.99,1.86-.72,3.76-1.33,5.63-2.02.46-.17.88-.45,1.32-.68-.59-.29-1.18-.82-1.76-.81-1.59.04-3.29,0-4.72.58-1.68.68-3.09.77-4.7-.02-.36-.18-1.52.29-1.56.58-.31,2.06-2.29,2.7-3.34,4.1-.94,1.26-1.02,2.57-.03,3.26,1.49,1.05,2.7,1.02,3.18-.68.63-2.24,1.77-1.27,2.9-1,.27.07.47.45,1.35.64.3,1.19.37,2.54.99,3.54.47.76,1.13,2.26,2.69,1.18,2.66-1.83,5.41-1.65,8.06-.25-.9,1.62-1.72,3.31-2.73,4.86-1.34,2.07-1.36,2.73.55,3.67,1.2.59,2.56.85,4.29,1.39,0-2.5-.07-4.46.03-6.42.04-.74.33-1.54.73-2.18,2.13-3.38,1.83-4.3-1.67-6.23-1.4-.77-1.82-.94-2.2.91-.28,1.37-1.53,1.57-2.85.58-2.45-1.85-5.36-.71-8.25-.71ZM109.76,190.12c.12.63.31.99.22,1.23-1.1,2.91-.65,3.7,2.2,3.77,2.46.05,4.49-.97,6.59-2.16,1.49-.84,3.23-2.57,5.15-.46.18.2.83.29,1.01.14,2.43-1.99,2.78.48,3.8,1.67.61.71,1.47,1.21,2.22,1.81.52-.67.97-1.43,1.58-2,.81-.74,1.69-1.74,2.66-1.92,2.44-.46,5.02-1.63,7.29.81.65.7,2.19.51,2.95,1.16,2.33,1.98,4.49.96,6.67-.09.42-.2.59-.91.88-1.39-1.32-.38-.22-2.6-2.48-2.78-1.39-.11.4-3.16-1.42-4.2-.25-.14-.47-.34-.82-.59-.26,3.21-3.44,3.51-5.12,5.31-1.07,1.15-1.7,1.24-2.27-.61-.31-1.01-2.06-2.57-2.53-2.37-3.87,1.59-7.82.52-11.68.55-3.04.02-5.43.58-7.13,3.19-1.63-2.04-4.69-2.42-5.35-5.32-.15-.68-.71-.73-1.41-.13-.76.64-2.17.53-1.82,2.2.25,1.2-.72,1.35-1.55,1.15-.73-.17-1.44-.98-2.08-.9-1.69.21-1.18-1.88-1.63-1.77-.95.24-1.75,1.11-2.62,1.7-.11.08-.43-.05-.47.02-.24.37-.61.81-.56,1.17.04.31.59.77.92.78,2.28.07,4.57.04,48.99-.57.01.15.02.3.04.46h7.91c-2.91-3.34-2.9-3.32-6.24-1.06-.48.33-1.14.41-43.91,1.2ZM1128.25,103.6c2.1.64,3.63.92,4.97,1.58.75.37,1.71,1.39,1.66,2.06-.08,1.09-.98,2.03-2.38,1.88-.93-.1-1.78-.07-2.77-.58-1.37-.71-3.36-1.44-4.09,1.32-.16.59-1.53.92-2.39,1.25-.72.27-2.08.23-2.16.57-.64,2.65-2.51,1.41-3.8,1.17-2.25-.41-2.35-.27-2.36,1.96,0,1.79,2.91,1,2.26,3,.78.09,1.95.56,2.29.22,2.99-3.03,8.13-1.82,10.75-5.55.26-.36,1.21-.4,1.81-.32,1.13.15,1.78-.44,2.59-1.07.69-.54,1.7-.67,2.58-.96.59-.19,1.29-.19,1.77-.52,2.58-1.8,2.7-1.98,4.37-.52,1,.87,1.9,1.1,3.09,1.05,1.33-.06,2.66-.04,3.99,0,1.77.04,2.04-.55,1.08-2.04-.8-1.23.69-1.88,1.17-1.87,1.55.02,3.04-.26,4.72.6,2.35,1.19,5.14,1.73,7.93,1.31,3.88-.59,7.51-2.37,11.51-2.38.41,0,.8-.48,1.23-.61,2.37-.76,3.91-3.23,6.65-3.29.08,0,.33-.94.17-1.28-.62-1.33-2.03-1.72-3.05-.72-1.58,1.55-3.68,1.6-5.58,2.22-.28.09-1.05-.53-1.22-.97-.94-2.41-.91-2.44-2.45-1.04-.62.56-1.09,1.49-1.79,1.69-1.34.39-3.06,1.42-3.83-.95-.05-.16-.86-.25-.87-.21-.95,2.6-3.55,1.03-5.21,2.01-1.2.71-4.88-1.14-4.78-2.29.23-2.5-1.23-2.16-2.73-2.2-.78-.02-1.54-.27-2.32-.41,1-1.4-2.07-2.72-.1-4.18.02-.02-.47-.73-.72-1.13-1.74,1.43-3.8.44-5.68.75-1.44.23-1.38-.64-1.63-1.71-.5-2.16-3.79-3.05-5.18-1.49-.72.8-1.06,1.97-1.83,2.7-.83.78-1.96,1.24-3.2,1.99,1.69,1.13,3.01,2.01,4.45,2.97-.6.55-1.14,1.42-1.56,1.36-3.34-.41-4.93,1.88-7.37,4.66ZM92.64,179.12c-.95-1.37-1.43-2.14-1.99-2.84-.85-1.04-1.68-1.71-1.76.45-1.87.37-3.81,1.2-5.41-.64-.89-1.03-1.56-1.27-2.84-.25-1.03.83-1.86.13-1.62-1.21.2-1.12.64-2.2,1.28-4.29-1.91,1.91-3.24,3.74-4.77,2.65-2.29-1.62-4.2-2.49-6.88-.93-1.21.7-2.31-.63-2.57-1.64-.31-1.25.73-2.05,1.98-2.28.99-.19,2-.28,4-.54-2.64-2.01-3.34-4.76-6.48-4.54-.45.03-1.19-.76-1.35-1.31-.1-.33.61-.96,1.04-1.37.2-.19.64-.1.87-.27.33-.25.57-.62.85-.94-.42-.35-.87-1.03-1.24-.98-1.45.18-2.05-.81-2.75-1.69-.34-.43-.61-1.28-.93-1.29-.74-.02-1.57.22-2.21.61-.69.43-1.59,1.07-1.72,1.74-.45,2.42-1.93,1.83-3.09,1.03-1.17-.8-1.79-.38-2.44.44-.59.74-1.23,1.49-1.59,2.34-.71,1.7-2.34,1.36-3.53,1.97-1.26.65-1.91,2.45-2.94,3.66-.22.26-.95.03-1.42.14-1.7.4-3.04-.76-4.59-1.03-.5-.09-1.19-.71-1.39-.55-1.81,1.39-2.99.38-4.16-.92-.67-.74-1.39-.79-1.99.09-.53.77-.85,2.05-1.52,2.25-.61.18-1.54-.84-2.38-1.21-.99-.43-2.2-.5-3.02-1.12-1.73-1.33-2.17.28-2.93.94,1.67.74,3.39,1.43,5.03,2.26,4.47,2.24,4.46,2.26,9.72,2.31.29,0,.58.22.88.27,5.1.95,7.21,1.6,11.49-1.03.36-.22.88-.18,1.7-.32v5.07c1,0,1.81.26,2.25-.04,2.23-1.52,5.37-.66,7.37-2.88.24-.26,1.98-.75,2.41.73.21.71.38,1.42.57,2.13.55-.73.9-.8,1.82-.17,1.57,1.06,3.47,1.51,5.47,1.26,1.15-.15,1.69.19,2.45,1.47.78,1.32,3.1,2.3,4.82,2.41,4.92.31,9.88.11,15.53.11ZM171.15,179.12c4.35,0,8.35-.02,12.35.02,1.17.01,2.13-.12,3.13-.97,1.42-1.2,3.01-2.43,4.74-2.95,1.77-.53,3.83.24,5.59-1.06.43-.32,1.35.1,1.95-.1.45-.15.91-.7,1.07-1.17.7-1.98,1.29-2.49,2.83-1.37,2.28,1.65,5.12,1.28,7.46,2.55.34.19,1.26.05,1.34-.17.19-.49.1-1.13-.01-1.68-.09-.44-.55-.83-.56-1.25,0-.6.07-1.48.45-1.75.45-.32,1.4-.35,1.89-.08.83.47,1.54,1.91,2.19,1.84,3.47-.36,7.26,1.52,10.42-1.34.2-.18.74-.14,1.03-.01,3.41,1.48,6.15-.62,8.75-2.03,1.47-.79,2.64-1.73,4.39-1.56.25.02.76-.58.78-.91.01-.34-.37-.91-.7-1.01-1.87-.58-3.56.36-4.92,1.28-1.47,1-2.72.64-4.12.39-.72-3.37-1.83-1.14-3.16-.38-1.01.57-2.42.48-3.66.52-.43.01-.5-.9-1.44-.37-4.6,2.54-5.69,2.19-9.23-2.21-.46-.57-1.32-1.22-1.95-1.19-1.74.09-1.59-.85-1.84-2.09-.34-1.76-1.22-2.11-3.04-1.27-.99.46-1.52.29-2.08-.41-1.45-1.81-3.56-2.53-5.48-3.63-1.09-.63-1.72-.2-1.75.35-.15,2.3-2.13,3.25-3.85,4.73,3.3.51,3.2.52,3.3,1.81.16,2.13-1.4,1.24-2.36,1.47-.57.14-1.43.26-1.61.64-.5,1.12-1.05,2.38-.99,3.55.1,1.83,2.09.02,2.81,1.13.22.34.82.41,1.19.68.34.24.84.55.86.87.03.35-.34,1.02-.62,1.07-1.55.3-2.93,2.18-4.79.24-.66-.69-1.99-.18-3.03.7-1.98,1.67-3.06,1.53-5.07.05-.39-.29-.71-.8-1.12-.88-.38-.08-1.07.15-1.23.45-.17.3,0,1.04.28,1.28.44.38,1.15.44,1.66.77.37.24.91.88.84,1-.35.55-.82,1.1-1.39,1.39-.3.16-.98-.06-1.31-.33-1.22-1.03-1.72-1.09-2.27.73-.38,1.24-1.6,2.67-3.33.81-.42-.45-1.55-.18-2.29-.42-2.12-.7-2.11-.73-2.11,2.26ZM653.41,199.21c-.43-.49-.92-.94-1.28-1.48-.33-.49-.38-1.37-.78-1.55-1.12-.5-2.39-1.08-3.55-.97-1.7.16-1.55-1.65-2.18-1.79-1.06-.23-2.3.5-3.49.68-.6.09-1.5.09-1.84-.27-1.13-1.18-2.61-.93-3.7-.6-1.22.38-1.97,1.65-1.65,3.22.03.15-.66.54-1.06.64-.22.06-.65-.18-.79-.4-.41-.65-.64-1.42-1.1-2.03-.6-.78-1.76-.87-1.92.04-.5,2.92-2.6,2.38-4.5,2.43-2.14.05-3.87-.52-4.85-2.68-.14-.31-1.34-2.79-1.82.12-.05.3-1.55.72-2.12.47-.69-.3-.97-1.62-1.64-1.84-1.53-.49-.77,1.5-1.6,1.82-.37.14-.99.02-1.31-.22-.5-.38-1.09-.92-1.19-1.47-.25-1.48-.87-1.53-1.96-.81-.38.25-.82.42-1.25.6-.72.3-1.04-1.66-1.76-.42-.21.36.56,1.37,1.01,1.99,1.61,2.22,4.47,1.12,6.45,2.39,1.15-1.56,2.07-.95,3.16.17.49.5,1.37.67,2.11.86,2.31.61,4.62,1.29,7.07,1.05.35-.03.74.41,1.11.64-.32.44-.58.95-.98,1.31-.46.41-1.04.96-1.57.96-1.39,0-2.76,2.21-4.21.09-.06-.09-1.03.19-1.18.5-.15.32.08.93.31,1.31.68,1.15,1.79,1.18,3,1.18,9.65-.03,19.3-.03,28.95,0,1.34,0,2.52,0,3.5-1.27,1.18-1.53,2.39,1.4,3.72.21.12-.11.31-.22.34-.35.6-2.66,1.88-1.9,3.44-.82.86.6,2.19.59,2.93,1.27,1.69,1.55,3.18,1.05,4.7-.06,1.06-.77,2.03-1.65,3.47-2.83-2.19,0-4.08-.58-5,.12-1.8,1.37-2.91.35-4.33-.26-.99-.42-2.04-.91-3.08-.95-.84-.03-1.88,1.02-2.52.78-.68-.26-.93-1.53-1.48-2.28-.43-.59-1.02-1.06-1.54-1.57-.79.79-1.38,1.38-2.09,2.09ZM659.92,230.89c-1.08-3.08-5.19-2.9-5.96-6.14-.03-.12-.74-.28-.91-.14-1.3,1.04-2.47.82-3.41-.39-.83-1.07-1.86-1.28-3.05-1.09-2.38.38-3.45-1.01-4.1-3.05-.2.36-.34.63-.5.9-1.64,2.72-2.57,2.91-4.72.91-.85-.79-1.61-1.69-2.5-2.44-.31-.26-.88-.2-1.33-.28-.07.57-.21,1.14-.16,1.7.02.25.57.44.65.72.26.9-1.1,2.68-1.61,2.26-1.94-1.63-3.52-.43-5.32.22-1.6.58-3.35.86-5.06.99-.82.06-1.9-1-2.49-.74-.99.44-1.65,1.6-2.54,2.34-.52.43-1.23.65-1.96,1.01,1.76.71,3.21,1.7,5.09,1.49.69-.08,1.73.22,2.13.73.98,1.23,2.18,1.24,3.53,1.23,2.64,0,5.42-.42,7.89.26,2.44.67,4.4.56,6.84,0,2.77-.64,6.03-2.56,8.79.43.18.2.69.38.85.27,3-2.04,6.4-.39,9.84-1.2ZM1013.46,179.16c2.17,1.62,3.36,4.79,6.92,4.01.28-.06.67.69,1.09.9,2.61,1.32,5.22,2.66,7.88,3.86,1.16.52,4.6-.59,4.57-1.46-.05-1.7-1.16-2.52-2.94-2.4-.38.03-.83-.4-1.19-.68-1.12-.88-1.05-2.02.2-2.73.52-.3,1.16-.45,1.77-.53,2.2-.27,4.24-1.57,6.58-1.07.14.03.63-.71.6-1.06-.03-.32-.57-.86-.85-.84-.76.06-1.48.47-2.24.56-.89.11-1.8.04-2.7.04.01-.78-.3-1.87.09-2.29,1.24-1.33.65-2.71.57-4.09-2.89-1.01-4.53.2-6.28,2.5-1.72,2.26-4.3,3.87-6.55,5.72-1.18.97-3.5.63-3.63-.76-.27-2.81-2.34-3.97-3.84-5.74-1.22,1.22-2.81,2.11-3.22,3.37-.69,2.14-2.09,2.24-3.82,2.88-1.83.68-3.17,1.1-4.85-.02-.32-.22-1.23.04-1.6.37-1.76,1.58-2.86,1.92-4.1.79-1.18-1.08-2.18-2.36-3.31-3.59-.91,1.72-1.73,3.05-2.34,4.46-.95,2.22.23,3.79,2.71,3.75.94-.01,5.21-1.52,6.97-2.46.23-.13.6-.42.69-.35,2.23,1.78,4.81.34,7.16.82,1.21.25,2.39.65,3.58.99.36-1.32.7-2.66,1.11-3.96.09-.28.45-.48.96-.99ZM502.36,163.15c-.21.38-.32.51-.35.65-.17.76-.09,1.97-.53,2.21-1.13.61-2.26-.72-2.25-1.29.03-1.93-1.99-1.34-2.52-2.41-1.93,2.03-3.62-.74-5.59-.27-2.34.55-4.3-.63-6.01-2.28-.74-.72-1.22-2.16-2.74-1.49-.88.38-.27,1.8,1.41,3.09.47.36,1.09.64,1.68.73,1.81.28,3.23,1.19,4.49,2.45.57.57,1.25,1.53,1.83,1.49,2.93-.19,5.07,1.5,7.37,2.78.98.54,1.38.07,2.1-.38,2.14-1.32,4.2-2.98,7.02-2.35.21.05.49-.4.77-.49,2.15-.72,2.1-.69,3,1.63.16.41,1.09.96,1.34.83.97-.51,1.73-1.64,2.72-1.86,1.94-.44-.08-2.58,1.19-2.89.96.4,1.92.49,2.33,1.02,1.95,2.49,5.05,2.5,7.62,3.34,2.63.85,5.57,1.05,8.45-.44,1.73-.9,3.98-.92,6.02-1.07,3.45-.26,3.46-.18,4.86-4.13-2.92,1.76-6.07.92-9.1,1.08-.44.02-1.15-.09-1.3-.37-1.45-2.59-3.5-1.4-4.78-.32-1.67,1.39-2.3.34-3.18-.6-.47-.5-.79-1.58-1.22-1.6-1.6-.09-3.32-.14-4.81.35-1.93.64-3.63.99-5.44-.18-.75-.48-1.47-.52-1.77.69-.11.43-.74.92-1.2,1.02-1.98.43-3.87-.2-5.43-1.26-1.22-.83-2.1-.82-3.35-.33,1.02.66,1.92,1.05,2.55,1.7.85.88.69,1.36-.62,2.02-1.96.99-3.04-.07-4.54-1.06ZM1117,128.31c0,.95-.1,1.64.03,2.27.11.54.62,1.49.71,1.47,2.43-.74,3.02,2.18,5.03,2.51.94.16,1.49.7,2.46-.11,1.77-1.46,8.74-3.57,10.57-3.29.44.07.83.66,1.19,1.06.2.22.29.54.43.81.82-2.27,4.53.77,4.83-2.59,0-.03,1.32-.2,1.59.1,1.07,1.18,2.23,1.75,3.87,1.64.67-.04,1.38.62,2.08.93,1.45.65,2.88,1.34,4.57,1.02,1.7-.32,3.38.3,5.18-.82,1.45-.9,3.82.25,5.46-1.19,3.3.58,5.34-1,6.77-3.85-4.45-.66-8.93.75-13.16-1.1-.41-.18-1.13.38-1.72.56-1.71.53-3.61,1.1-5.01-.32-1.83-1.85-3.81-1.68-5.78-.81-1.46.64-2.8.87-4.05,0-1.37-.93-2.4-.74-3.43.39-1.44,1.58-3,1.62-4.77.49-1.43-.91-3.09-1.5-4.42-2.53-1.19-.93-2.17-1.27-3.52-.31,2.92.34,3.61,4.46,7.16,3.85-.94.8-1.85,1.24-2.8,1.6-1.88.72-2.67-1.21-3.97-2.03-.16.6-.24.9-.31,1.2-.16.6-.31,1.2-.47,1.8-.57-.21-1.39-.25-1.66-.66-1.63-2.45-3.96-2.6-6.87-2.11ZM345.48,213.79c-2.82.72-4.93-.52-6.61,1-1.71,1.55-3.26,3.08-5.29.46-.01-.01-.43.39-.68.44-.56.1-1.13.09-1.7.13-.14-2.32-1.87-1.62-3.2-1.71-.9-.06-1.71.3-2.12-1.25-.44-1.64-1.94-2.54-3.87-1.31-.62.4-1.49.46-2.26.55-1.7.21-4.26-.93-3.79,2.54.01.1-.21.32-.34.34-1.68.18-2.57,1.13-2.79,2.77,0,.04-.47.09-.67.01-2.83-1.18-5.58-.93-8.32.33-.39.18-1.14.15-1.41-.1-2.03-1.88-2.13.31-2.36,1.25-.28,1.21-.07,2.54-.07,3.78.75.05,1.21.23,1.37.08,1.03-1,2.4-1.63,3.39-.57,1.02,1.09-.22,2.33-.73,3.45-.1.22.14.59.29,1.14,5.55,0,11.18,0,16.8-.02.27,0,.55-.27.86-.44-.33-.35-.61-.94-.97-1-2.61-.41-4.26-2.68-6.57-3.42-1.35-.43-1.68-.97-1.37-1.93.27-.82,1-2,1.65-2.09,1.38-.2,2.85.21,4.28.39.57.07,1.42.5,1.66.27,1.6-1.53,3.49-.48,5.21-.72,1.13-.16,2.41.18,2.24-1.64.57-.03,1.51-.29,1.65-.06,1.19,1.95,3.05,1.66,4.85,1.66.83,0,1.67-.07,2.5.01,3.31.31,5.89-.93,8.39-4.34ZM805.67,136.93c.6,1.53,1.49,2.67,1.23,3.39-.56,1.57-2.27.44-3.4.84-.28.1-.45.5-.72.68-2.66,1.75-2.65,1.73-6.13-.53-.31-.2-1.13-.19-1.29.03-.52.72-1.32,1.71-1.13,2.34.22.73,1.02,1.53,2.3,1.48,3.32-.13,6.68-.31,9.98.04,2.83.3,4.71-1.64,7.12-2.2,1.22-3.33,4.09-2.67,6.7-2.96,1.27-.14,3.25-.8,3.53-1.67.72-2.23,1.85-1.18,3-.91.98.23,1.97.47,3.3.8-1.32-1.33-2.47-2.11-3.08-3.2-.72-1.26-1.41-1.93-2.96-2.01-1.32-.07-1.55-1-.6-1.89.69-.65,1.59-1.07,2.57-1.71-1.33-.85-2.46-1.44-3.41-2.24-.39-.33-.64-1.14-.54-1.66.18-.95,1.9-1.65,2.7-1.08,2.43,1.73,5.1,2.9,7.9,3.86.73.25,1.44.57,2.18.76.25.07.77-.09.84-.26.15-.4.29-1.01.1-1.31-.52-.81-1.61-1.44-1.75-2.26-.28-1.65-1.76-1.41-2.16-1.07-2.04,1.77-3.12.33-4.35-.99-.68-.73-1.31-1.62-2.16-2.01-.59-.27-2.19.15-2.2.32-.1,2.34-2.31,1.75-3.45,2.58-.97.71-1.14,1.64.05,1.92,1.61.38,1.2,1.35,1.11,2.18-.04.35-.82.81-1.31.89-2.6.42-3.46,2.58-5.27,4.73,1.84.19,3.16.08,4.26.53.74.3,1.95,1.18,1.27,2.29-.43.71-2.03,1.59-2.25,1.4-2.44-2.12-4.51-.6-6.53.57-.81.47-1.29.68-2.11.06-.79-.6-1.78-.95-3.32-1.73ZM1028.4,214.2c-1.93-2.16-2.93-4.35-5.49-4.7-.26-.04-.5-.42-.7-.68-.81-1-1.43-.75-2.44-.05-2.75,1.88-5.63,3.52-9.14,1.57-.42-.23-1.54.23-1.98.71-1.11,1.2-1.89,1.37-3.24.18-.44-.39-1.91-1.55-3.13-.17-.26.3-1.46-.25-2.23-.38-.9-.15-2.16-.71-2.62-.32-1.16.98-1.8.89-2.88-.07-.47-.42-1.58-.2-2.39-.13-.4.03-.77.39-1.16.6.3.46.51,1.07.93,1.34,3.71,2.37,8.05,2.26,12.17,3,2.91.52,5.71-.43,8.54-.94,1.36-.24,1.62.49,1.1,1.77-.51,1.24.48,2.53,1.61,2.17,1.75-.56,3.72-.95,5.08-2.05,2.2-1.79,4.58-2.05,7.97-1.84ZM131.43,231.15c1.26-.62,3.4,1,4.73-.77,2.05-2.74,2.63,1.45,4.16.73.28-.13.48-.49.76-.56,3.31-.82,5.92-3.47,9.51-3.56.24,0,.44-.48.71-.67.74-.5.63-.89,0-1.44-.64-.55-1.22-1.22-2.06-.49-1.32,1.15-3.56.41-4.55,2.41-.33.67-1.36.57-1.71-.6-.68-2.31-.72-2.27-2.68-.91-.63.43-1.45.61-2.02,1.1-.55.47-.86.84-1.45.07-.7-.93-1.23-1.57-2.52-.28-1.51,1.51-4.95,1.36-6.66.02-.82-.64-1.31-1.39-2.17-.09-.4.61-.89,1.36-1.78.28-.45-.54-1.55-.57-1.98-1.12-1.4-1.8-2.34-.53-2.64.57-.52,1.92-1.03,1.43-2.31.65-1.69-1.03-3.63-1.64-5.51-2.33-.32-.12-1.06.2-1.2.5-.15.32.09.92.32,1.3.25.41.67,1.02,1.04,1.03,3.13.08,5.47,2.17,8.09,3.37,1.85.85,2.89,1.05,4.2-.42.25-.28.98-.57,1-.54,1.59,2.5,4.1,1.55,6.72,1.75ZM910.96,160.84c.57.11,1.02.26,1.47.26,1.14.01,2.41-.24,3.05,1.02.74,1.46-1.1,1.55-1.43,2.46-.1.29-.02.65-.02.97,3.61,1.18,7.31,2.24,10.88,3.62,1.57.61,2.64,1.17,4.07-.41,1.13-1.26,1.87-.89,3.03.79.18.27.47.46.65.73.65.99,1.14.58,1.78-.07.98-.99.69-1.99-.29-2.36-2.29-.87-3.2-2.72-4.18-4.7-1.2-2.44-1.27-2.38-3.78-.75-.51.33-1.11.64-1.69.69-3,.26-5.74.14-7.88-2.71-1.56-2.08-3.12-1.75-5.67.46ZM630.17,249.12c3.51,2.52,6.2,4.37,9.83,4.03.93-.09,1.92.12,2.85.34,2.88.68,5.68,2.48,8.6-.17.65-.59,2.17-.24,3.33-.32v-4.37c-1.16.81-1.93,1.29-2.63,1.86-1.32,1.07-3.09,1.14-3.98.15-1.85-2.03-3.87-2.87-6.51-2.54-.19.02-.6-.36-.64-.6-.49-2.64-1.67-1.47-2.49-.35-1.35,1.84-3.14,2.17-5.2,1.99-.65-.06-1.3,0-3.16,0ZM740.1,215.83c.53,2.61,2.54,1.93,3.72,2.64,3.52,2.1,7.03,2.32,10.86.73,1.84-.76,4.02-1.08,6.01-.98,2.07.11,2.9-1.25,4.02-2.36.25-.25.34-1,.16-1.28-.2-.3-.94-.56-1.25-.41-2.27,1.05-4.65,1.08-7.06.95-1.4-.08-2.75.23-4.17-.84-.71-.53-2.58.62-3.95.8-.52.07-1.1-.51-1.68-.67-.6-.17-1.25-.26-1.87-.24-.21,0-.57.48-.57.75,0,2.22-.32,2.6-1.99,2.02-.66-.23-1.26-.61-2.23-1.1ZM87.8,187.82c-4.47.52-7.79.87-11.09,1.36-.31.05-.45,1.01-.72,1.52-.26.49-.56,1.33-.87,1.34-.7.03-1.97-.27-2.03-.6-.23-1.37-.83-1.86-1.88-.97-.98.83-1.57.82-2.46-.06-1.26-1.23-2.31-3.52-4.64-1.34-.12.11-.94-.25-1.19-.57-1.65-2.16-3.27-.24-4.82.11-.49.11-.75,1.27-1.11,1.95.58.18,1.15.4,1.74.53.32.07.66,0,.99.01,1.69.06,3.93-.62,3.31,2.52-.02.11.52.48.75.45.42-.07.99-.26,1.15-.58.2-.4-.13-1.08.09-1.44.26-.42,1.13-1,1.29-.88,2.19,1.57,5.12.99,7.31,2.94,2.89,2.58,4.13-2.5,6.78-2.01.48.09,1-.02,1.49.02,1.04.09,1.89-.08,2.6-.99.71-.91,1.62-1.66,3.27-3.32ZM174.93,188.45c1.8,2.02,3.5,3.72,6.34,3.71.71,0,1.48.45,2.11.87.93.61,1.66,1.62,2.66,2.03,1.55.64,2.21-.99,3.25-1.69,2.78-1.86,4.79-1.72,7.75.24.23.15.83.09,1.02-.1,1.34-1.39,3.89-2.52,5.59-2.4.17.01.43.07.48,0,.32-.46.89-1.31.82-1.37-1.08-.91-2.17-1.84-3.4-2.5-1.17-.63-1.73.59-2.38,1.24-.99.99-2.1,1.04-3.04.23-1.02-.89-1.62-.57-2.46.2-.92.84-2.03,1.49-3.06,2.23-1.81-2.01-2.13.81-3.25.97-.41.06-.95-.16-1.3-.42-3.62-2.78-6.34-3.6-11.14-3.21ZM376.19,213.43c2.36,2.15,4.4,3.31,5.16,2.61,1.64-1.51,3.83-.15,5.05-1.05,1.77-1.3,3.48-.55,5.16-.9.51-.11.96-.55,1.44-.83-.38-.38-.7-.88-1.16-1.12-3.21-1.69-5.68-4.26-8.13-6.84-1.04-1.1-1.82-1.72-3.22-.34-.39.39-2.13.98-2.59-.99-.23-1-2.5-1.23-2.66-.5-.13.6.27,1.45.67,2.02.46.65,1.3,1.65,1.77,1.55,2.83-.59,4.62,1.99,7.17,2.14.4.02,1.02.68,1.08,1.11.1.68.25,1.33-.84,1.91-4.2,2.23-4.26,2.36-8.91,1.24ZM353.12,184.33c.35,3.15.63,5.51.88,7.87.14,1.33,1.21,1.01,1.87.88,4.45-.92,5.71-5.12,8.09-8.14.65-.83-.19-1.79-1.37-1.82-.5-.01-1.12-.2-1.47.03-2.06,1.33-3.82,1.43-5.43-.74-.15-.2-1.49.14-1.93.57-.5.49-.63,1.37-.62,1.35ZM862,94.96c0-1.01.1-1.7-.03-2.34-.11-.53-.5-1.01-.76-1.5-.4.36-.75.84-1.22,1.06-2.09.98-2.23,4.66-5.51,3.96-.09.57-.43,1.28-.21,1.68.6,1.07,1.96,1.94,2.85,1.22,1.82-1.46,3-.75,3.94.71.98,1.52,1.84.73,3.06.47,1.57-.34,2.76-.3,1.28-2.22-.83-1.07-.59-1.79.86-1.87,2.25-.12,4.53.24,6.57-.19-1.24-1.24-2.39-2.39-3.6-3.6q-4.24,2.68-7.21,2.63ZM979,159.29c3.79-1.5,5.13-2.21,7-4.77,1.03-1.42,1.45-3.29,2.32-5.4-1.43,0-2.6-.35-3.29.07-1.62.99-2.74,1.02-4.05-.51-.79-.92-2.22-.47-2.69.68-.23.57-.36,1.28-.25,1.87.22,1.21.78,2.37.93,3.58.17,1.41.04,2.86.04,4.47ZM141.24,249.12c-2.98,0-5.3-.1-7.6.05-1.04.07-2.57,1.21-2.98.85-1.95-1.72-4.11-.63-6.14-.85-.81-.09-2.26-.69-2.42.7-.08.71.96,1.53,1.46,2.32.63,1.01,1.6.94,2.6.93,2.32-.03,4.64-.13,6.95.02,3.31.22,5.87-.95,8.12-4.03ZM375.67,183.01c-.42.22-1.43.62-2.27,1.26-.8.61-.52,1.59.32,1.87,1.08.35,2.87-.98,3.14,1.01.07.51-1.48,1.24-2.27,1.88-.26.21-.52.43-.7.71-.33.52-.89,1.1-.85,1.61.11,1.26,1.25.82,1.94.75,1.39-.14,2,.35,2.26,1.72.1.51.87.94,1.4,1.29.21.14.79.08.9-.09.25-.36.49-.91.39-1.29-.11-.42-.65-.71-.94-1.1-1.67-2.23-1.48-2.98,1.08-4.08.56-.24,1.22-.24,1.81-.44.4-.14.88-.36,1.06-.69.25-.47-1.47-3.17-2.01-3.28-1.52-.33-3.04-.64-5.28-1.11ZM889.11,93.12c-.5.46-2.05-.77-2.04.96,0,.65.72,1.49,1.34,1.88.89.56,2.02.72,2.99,1.18,2.09.99,4.28,1.87,6.16,3.17,1.18.82,1.79,1.05,2.85-.03.75-.76,1.84-1.16,2.72-1.82.41-.31,1.18-.66.33-1.41-.75-.66-1.95-1.67-2.3-.42-.65,2.28-1.35,1.7-2.54.62-1.93-1.75-7.27-4.1-9.5-4.13ZM734.7,240.12c1.33,0,2.32.05,3.31-.02.72-.05,1.89.48,1.92-.76.02-.64-.69-1.82-1.17-1.88-2.96-.35-5.1-3.52-8.47-2.39-.34.11-.92-.19-1.26-.46-.87-.71-.87-.18-1.07.53-.16.57-.57,1.18-1.05,1.52-1.37.96-.42,1.55.28,2.12,2.36,1.9,5.18,1.21,7.51,1.34ZM47,190.27c-.21-.31-.64-1.43-1.45-2-1.07-.75-1.62.6-2.36,1.12-.29.21-.84.47-1.01.35-2.19-1.6-5.14.4-7.3-1.57-.32-.29-1.77-.51-1.84.77-.04.71.13,1.69.6,2.11.64.57,1.66,1.03,2.5,1,2.6-.07,4.85.83,7.18,1.81,2.28.96,3.68-.24,3.68-3.6ZM799.15,154.4c2.26,1.53,3.93,4.31,7.32,3.8.72-.11,1.85.64,2.35,1.31,1.76,2.41,3.5.46,5.17.04.85-.21,1.52-1.1,2.44-1.82-2.08-.88-2.32-.69-3.64,0-.7.36-2.53.09-2.54.01-.2-3.12-1.33-4.5-4.45-2.64-.09.05-.33-.04-.42-.13-1.83-1.75-4.02-.43-6.22-.58ZM300.55,242.84c.08,2.09.3,3.59.1,5.03-.07.52-.64.77-.02,1.46.8.88,1.14.12,1.82-.05,2.32-.56,3.84-2.1,5.54-3.56,1.26-1.09,1.14-2.35.96-3.59-.21-1.47-1.28-2.11-2.82-2.02-1.69.09-1.01,1.33-1.12,2.17-.22,1.67-.98,2.31-2.43,1.82-.7-.24-1.29-.78-2.03-1.25ZM720.84,199.07c-.37,1.38-.54,2.61-1.03,3.69-.82,1.78-.91,1.75-.21,2.45.97.98,1.95,1.95,2.71,2.71,2.45-1.21,4.54-2.24,6.29-3.1-2.46-1.82-4.84-3.59-7.76-5.75ZM125.27,205.21c-.08.41-.26.86-.25,1.3.02.79-.15,1.94.29,2.3,1.55,1.25,3.29,2.3,5.05,3.25.37.2,1.21-.2,1.69-.54.66-.47,1.08-1.36,1.78-1.67,2.31-1.02,2.79-2.55,1.68-4.77-.38.72-.75,1.96-1.09,1.95-2.8-.05-5.92,1-8.08-1.89-.1-.14-.61.03-1.07.07ZM970.31,171.89c-1.54-1.21-2.26-3.34-4.13-2.69-2.32.8-1.79-2.38-3.58-2.11-1.1.16-2.1.02-3.14-.85-.8-.67-2.22.66-2.45,2.18-.18,1.17.35,1.39,1.52,1.8,3.62,1.28,7.18,2.38,11.78,1.67ZM448.86,141.51c3.2-.58,6.12-1.11,9.11-1.65-2.34-2.54-2.36-2.58-4.67-1.49-.53.25-.76.93-1.44.15-.5-.57-1.24-1.32-1.88-1.33-1.64-.02-.61,1.49-1.01,2.19-.38.67-1,1.24-1.62,1.71-1.11.84-2.3,1.56-3.45,2.33,1.67,2.55,3.9,1.38,5.89,1.75-.36-1.43-.64-2.54-.92-3.67ZM911.75,182.31c.29.8.36,1.3.62,1.66,1.65,2.2,4.1,2.87,6.64,3.12,1.47.14,2.93-.08,3.91,1.43.52.8,1.32.94,2.02.14.41-.47,1.07-1.12.97-1.53-.18-.71-.75-1.66-1.36-1.84-1.06-.32-2.28-.25-3.42-.14-1.3.13-2.58-.27-2.87-1.35-.63-2.43-1.54-2.13-2.82-.62-1.82,2.15-1.16-.65-1.77-.84-.51-.16-1.12-.03-1.93-.03ZM317.85,247.77c1.69.35,2.92.6,4.15.85-.28,1.54.73,1.42,1.79,1.53,1.98.2,3.57-.58,5.68-1.99-3.59-.35-3.81-4.58-7.17-4.84-1.41,1.41-2.83,2.83-4.44,4.44ZM594.04,115.48c1.71,2.03,4.29.95,6.09,1.79,2.75,1.28,5.4.62,8.08.78.8.05,1.85-.54,2.41-1.18.43-.49.57-1.65.28-2.24-.44-.89-1.21-.48-2,.02-1.59,1.01-3.54,2.3-5.26,1.34-1.5-.83-3.03-1.28-4.54-1.39-1.65-.11-3.35.54-5.06.87ZM143.89,206.48c-2.26,1.37-4.15,2.49-6.01,3.65-.35.22-.8.59-.81.91-.02.34.41,1.02.65,1.02,1.01.01,1.92,1.79,3.16-.14.74-1.15,2.68-1.36,4.1-1.94,2.37-.98,5.67-.28,6.91-3.47-.65-.5-1.15-2.07-2.41-.43-.32.42-1.16.41-1.65.75-2,1.38-1.99,1.4-3.92-.36ZM110.77,208.98c3.72.19,6.93.26,9.4,2.76.28.29.91.42,1.32.34.85-.16,2.22.73,2.42-.77.08-.59-.62-1.51-1.22-1.92-.87-.6-2.05-.74-2.92-1.33-.55-.37-.79-1.21-1.16-1.83-.35.61-.58,1.56-1.09,1.75-1.08.4-2.13.14-3.08-.83-.82-.84-1.49-2.71-3-1.8-.62.37-.43,2.09-.68,3.62ZM1049.36,179.41c.75-.49,2.4-1.11,2.37-1.67-.06-1.43-1.3-1.42-2.45-.85-.05.02-.21-.26-.35-.33-1.77-.85-2.96-2.06-2.99-4.2,0-.42-.58-.99-1.02-1.19-.24-.11-.98.34-1.13.69-.67,1.55-1.21,3.16-1.8,4.75,1.12.5,2.23,1.05,3.38,1.49,1.16.44,2.35.78,3.98,1.31ZM936.83,164.87v-9.08c-.85.85-1.4,1.36-1.91,1.92-1.04,1.14-1.93,2.18-3.52.48-.52-.56-1.51.09-1.4,1.22.07.75-.07,1.31,1.01,1.8,2.04.92,3.85,2.38,5.82,3.66ZM1074.64,132.28c2.82-.77,5.92-.97,7.22-3.87.37-.82,2.42-1.97.59-3.17-.35-.23-1.51.82-2.32,1.23-2.03,1.05-4.11,1.99-6.06,3.16-.55.33-.73,1.3-1.08,1.98.56.23,1.12.46,1.64.67ZM457.77,157.85c-1.5,1.5-2.59,2.51-3.56,3.62-.22.26-.06,1.25-.05,1.26,2,.11,1.7,2.54,3.09,3.07.77.29,1.76-.04,2.66-.09-.08-1.2.49-1.75,1.68-1.68-.1-.3-.24-.88-.28-.87-2.08.38-2.45-.65-2.38-2.47.03-.82-.66-1.67-1.16-2.84ZM359.28,215.17c4.26-.3,7.62.2,10.73,1.89.49.27,1.82.52,1.93-.69.07-.77.6-1.79-.91-2.35-1.1-.41-1.86-1.74-2.91-2.8-.34.72-.53,1.78-1.17,2.33-1.18,1.01-2.71.96-3.94.04-1.72-1.29-2.09.41-3.73,1.59ZM208.11,193.42c2.05-.68,3.71-2.36,5.53-.38.18.19,1.57-.73,2.48-1.17-2.1-2.83-4.89-3.4-8.01-3.82v5.36ZM293.11,221.29c1.34-.2,1.98-.23,2.58-.42.17-.05.33-.57.28-.83-.22-1.2-2.73-3.08-3.78-2.49-1.56.87-2.63.66-3.86-.39-.18-.15-1.03.13-1.22.43-.18.29-.04,1.16.19,1.26,2.08.95,4.22,1.79,5.81,2.44ZM439.18,150.3c-.02,2.81-.01,2.94,1.8,2.78,1.85-.16,3.7-.52,5.47-1.05.37-.11.48-1.39.51-2.13,0-.25-.83-.8-.91-.73-2.08,1.63-4.64.57-6.86,1.14ZM368.88,244.12c-.88,0-1.26-.11-1.53.02-.49.24-.9.61-1.35.93.42.35.79.78,1.26,1.03,3.04,1.58,6.1-.7,9.17-.04.1.02.47-.74.54-1.16.04-.23-.27-.72-.47-.75-.65-.1-1.58-.32-1.95.01-1.3,1.16-2.39,1.38-3.85.24-.54-.43-1.55-.25-1.81-.29ZM54,190.89c0-.65.08-1.31-.02-1.95-.18-1.21-1.16-1.08-2.54-.91-2.78.34-1.34,2.35-1.3,3.32.06,1.27,1.37,1.99,2.88,1.78,1.6-.22.74-1.46.99-2.24ZM1112.97,115.06c-2.56.35-4.9.16-5.43-3.6-.86,1.6-1.23,2.68-1.92,3.47-.61.7-.36.92.11,1.46,1.22,1.4,2.79.48,4.17.72,1.39.24,2.45-.24,3.07-2.04ZM737.11,222.3c-1.07-2.1-1.82-3.73-2.75-5.26-.28-.46-1.04-.63-1.58-.93-.26.5-.62.97-.76,1.5-.2.76-.24,1.56-.37,2.34-.06.36-.17.7-.26,1.06,1.77.4,3.54.8,5.71,1.29ZM1035.5,158.12c1.53,1.53,2.46,2.48,3.41,3.4.96.94,2.07,1,3.01.11.52-.5,1.19-1.67.98-1.95-.51-.7-1.44-1.35-2.28-1.5-1.42-.24-2.91-.07-5.12-.07ZM849,115.13c0-.65.08-1.32-.02-1.96-.2-1.39-1.9-2.46-3.23-2.04-1.4.44-.68,1.63-.72,2.47-.1,1.88,2.26,1.99,2.72,3.52.42-.17,1.02-.24,1.2-.55.21-.37.05-.95.05-1.44ZM591.19,60.69c-3.07.82-5.69,1.98-7.6,4.31-.58.71-1.01,1.4-.14,1.98.31.21,1.35-.11,1.59-.48,1.09-1.69,2.27-3.01,4.41-3.48.71-.16,1.16-1.52,1.73-2.33ZM397.68,191.3c.14.27.28.55.42.82,1.44,0,2.89-.15,4.3.04,1.41.19,2.38-.65,3.56-.98,1.16-.32,1.25-.93.82-1.67-.14-.25-1.06-.06-1.62-.03-.12,0-.24.21-.35.33-.76.93-1.47,1.67-2.46.18-.84-1.25-1.75-1.13-2.75-.02-.51.56-1.27.89-1.92,1.33ZM491.09,129.12c-1.03,0-2.02-.31-2.55.06-1.82,1.24-3.52,2.67-5.16,4.15-.28.25-.03,1.08-.03,1.64.45-.01,1.02.15,1.31-.06,1.14-.86,2.23-2.66,3.28-2.62,2.39.1,2.09-1.77,3.15-3.17ZM777.17,156.12c1.94,0,3.9.12,5.82-.06.67-.06,1.27-.87,1.9-1.33-.51-.2-1.04-.36-1.51-.62-1.04-.56-2.06-1.18-2.62-1.5-1.2,1.17-2.32,2.26-3.6,3.51ZM696.44,200.92c-1.96-.38-2.83,1.05-3.8,2.11-.36.4-.38,1.11-.56,1.68.61.14,1.31.53,1.81.36,1.15-.4,2.28-.99,3.28-1.7.44-.31.83-1.12.73-1.61-.07-.36-.95-.57-1.47-.85ZM442.83,210.19c.08-.27.17-.55.25-.82-1.45-.75-3.09-1.28-4.32-2.31-1.5-1.25-2.39.25-3.57.36.11.56.12,1.58.33,1.62,2.42.47,4.87.79,7.31,1.14ZM946,181.57c-.12-.22-.31-1.19-.8-1.37-1.12-.42-2.34.02-2.82,1.14-.32.74-.29,1.85.04,2.59.25.57,1.45,1.28,1.82,1.1.74-.35,1.23-1.26,1.74-2,.15-.22.02-.63.02-1.46ZM1108.14,100.96c1.26-.72,2.45-1.3,3.53-2.04,1.42-.97,2.78-2.02,4.09-3.13.24-.2.09-.85.11-1.3-.35.1-.73.13-1.03.3-1.84,1.09-3.54,2.65-5.53,3.21-2.26.63-1.05,1.82-1.17,2.95ZM884.95,71.12c.16,0,.39.07.48-.01,1.98-1.77,3.52-4.17,6.52-4.49.05,0,.13-.64.02-.92-.1-.25-.52-.61-.66-.55-1.13.44-2.2,1.03-3.33,1.46-1.68.65-2.99,1.72-3.96,3.2-.13.2-.04.67.12.9.15.21.52.27.8.4ZM928.96,208.57c.91.55,2.22,1.59,2.41,1.41,1.88-1.71,4.09-.46,6.06-.91.26-.06.58-.79.53-1.17-.15-1.11-1.09-1.32-2.22-1.09-1.65.35-3.16,2.63-5.13.54-.06-.06-1.07.78-1.66,1.21ZM725.99,222.12c1.71.07,2-.1,2.01-1.2,0-1.37-1.05-3.01-1.95-2.74-1.09.32-2.29.89-2.97,1.74-.62.77,1.15,2.13,2.92,2.2ZM1068.81,170.36c.65,2.45,2.43,3.55,4.09,4.74.22.16.67.1.97,0,.4-.14.83-.35,1.1-.66.14-.17.06-.66-.08-.91-1.28-2.25-3.66-2.41-6.07-3.17Z"/><path d="M1186,16.12c-.16-1.06.03-2.08,1.07-2.53,2.12-.91,3.72-3.16,6.46-2.52.09.02.48-.52.44-.75-.07-.42-.3-1.06-.58-1.14-.61-.16-1.47-.26-1.92.05-2.74,1.92-5.77.45-8.63.82-.21.03-.76-.89-.77-1.38-.01-.51.3-1.26.71-1.5.78-.46,1.78-.52,2.59-.95.86-.45,2.73.76,2.53-1.19-.08-.71-1.51-1.3-2.37-1.87-.23-.15-.81.1-.94-.07-.58-.72-1.65-1.8-1.45-2.26.57-1.29,1.73-.84,2.83-.3,2.46,1.19,5.04,1.72,7.82,1.63,3.75-.12,4.75.92,5.27,4.67.06.47.63.86.96,1.29v7c-1.77-.21-2.37.82-3.08,2.3-1.02,2.14-1.83,2.11-3.6.53-.94-.83-1.8-2.55-3.15-1.73-1.61.98-2.8-.31-4.18-.09Z"/></svg>